<svg width="593" height="378" viewBox="0 0 593 378" fill="none" xmlns="http://www.w3.org/2000/svg">
<rect width="205.636" height="94.7433" transform="matrix(-1 0 0 1 205.636 156.471)" fill="#3FFFF3"/>
<rect x="-0.269157" y="0.269157" width="64.3647" height="45.5269" transform="matrix(-1 0 0 1 269.867 325.356)" fill="#04146C" stroke="black" stroke-width="0.538314"/>
<rect width="92.2305" height="7.16571" transform="matrix(-1 0 0 1 284.072 367.327)" fill="#04146C"/>
<path d="M90.3954 112.809H386.043C392.612 112.809 397.937 118.153 397.937 124.745V336.26C397.937 342.852 392.612 348.196 386.043 348.196H90.3954C83.8267 348.196 78.5016 342.852 78.5016 336.26V124.745C78.5016 118.153 83.8267 112.809 90.3954 112.809Z" fill="#04146C" stroke="#04146C" stroke-width="1.07663" stroke-linecap="round" stroke-linejoin="round"/>
<path d="M397.937 311.612H78.5016V336.258C78.5016 339.424 79.7547 342.46 81.9853 344.699C84.2158 346.937 87.241 348.195 90.3954 348.195H386.029C389.184 348.195 392.209 346.937 394.439 344.699C396.67 342.46 397.923 339.424 397.923 336.258V311.612H397.937Z" fill="white" stroke="#04146C" stroke-width="1.07663" stroke-linecap="round" stroke-linejoin="round"/>
<path d="M94.5574 127.448H381.86V293.752H94.5574V127.448Z" fill="white"/>
<path d="M94.5574 127.448H381.86V293.752H94.5574V127.448Z" stroke="white" stroke-width="1.07663" stroke-linecap="round" stroke-linejoin="round"/>
<ellipse cx="6.83189" cy="6.85622" rx="6.83189" ry="6.85622" transform="matrix(-1 0 0 1 245.368 323.067)" fill="#04146C"/>
<path d="M507.245 295.16L475.898 309.479L456.171 266.155L479.004 255.725L491.405 260.372L507.245 295.16Z" stroke="#04146C" stroke-width="0.538314" stroke-linecap="round" stroke-linejoin="round"/>
<path d="M479 255.727L479.534 256.9L483.426 265.447L491.941 261.558L491.401 260.374L479 255.727Z" fill="#04146C" stroke="#04146C" stroke-width="0.538314" stroke-linecap="round" stroke-linejoin="round"/>
<path d="M482.892 264.275L491.407 260.385L479 255.727L482.892 264.275Z" fill="#04146C" stroke="#04146C" stroke-width="0.538314" stroke-linecap="round" stroke-linejoin="round"/>
<path d="M165.434 147.515C147.988 147.515 133.845 133.372 133.845 115.926C133.845 98.4801 147.988 84.3373 165.434 84.3373C182.88 84.3373 197.023 98.4801 197.023 115.926C197.023 133.372 182.88 147.515 165.434 147.515Z" fill="white" stroke="#04146C" stroke-width="1.07663" stroke-miterlimit="10"/>
<path d="M159.162 124.149L143.801 117.655V114.689L159.162 108.226V111.255L144.987 117.156V115.22L159.162 121.121V124.149ZM163.271 126.991H160.055L168.267 101.669H171.483L163.271 126.991ZM172.432 124.149V121.121L186.576 115.22V117.156L172.432 111.255V108.226L187.762 114.689V117.655L172.432 124.149Z" fill="#15163D"/>
<path d="M550.589 214.177C541.979 214.177 535 207.198 535 198.589C535 189.979 541.979 183 550.589 183C559.198 183 566.177 189.979 566.177 198.589C566.177 207.198 559.198 214.177 550.589 214.177Z" fill="white" stroke="#04146C" stroke-miterlimit="10"/>
<path d="M547.493 202.323L539.913 199.118V197.654L547.493 194.465V195.959L540.498 198.871V197.916L547.493 200.828V202.323ZM549.521 203.725H547.934L551.986 191.229H553.573L549.521 203.725ZM554.042 202.323V200.828L561.022 197.916V198.871L554.042 195.959V194.465L561.607 197.654V199.118L554.042 202.323Z" fill="#15163D"/>
<path d="M317.971 40.7435C307.066 40.7435 298.226 31.903 298.226 20.9977C298.226 10.0924 307.066 1.25192 317.971 1.25192C328.877 1.25192 337.717 10.0924 337.717 20.9977C337.717 31.903 328.877 40.7435 317.971 40.7435Z" fill="#5974FF" stroke="#04146C" stroke-width="0.67299" stroke-miterlimit="10"/>
<path d="M307.933 30.3981C307.178 30.3981 306.599 30.19 306.196 29.7736C305.792 29.3572 305.591 28.7717 305.591 28.0171V24.2504C305.591 23.7169 305.493 23.3396 305.298 23.1184C305.103 22.8842 304.764 22.7476 304.283 22.7086L303.522 22.65V20.874L304.283 20.8154C304.764 20.7764 305.103 20.6463 305.298 20.4251C305.493 20.1909 305.591 19.8071 305.591 19.2736V15.5069C305.591 14.7392 305.792 14.1537 306.196 13.7504C306.599 13.334 307.178 13.1258 307.933 13.1258H310.138V14.9604H308.83C308.544 14.9604 308.329 15.032 308.186 15.1751C308.056 15.3182 307.991 15.5394 307.991 15.8387V19.5664C307.991 19.9697 307.9 20.347 307.718 20.6983C307.549 21.0366 307.315 21.3099 307.015 21.518C306.729 21.7132 306.41 21.8108 306.059 21.8108V21.7327C306.41 21.7327 306.729 21.8368 307.015 22.045C307.315 22.2402 307.549 22.5069 307.718 22.8452C307.9 23.1704 307.991 23.5413 307.991 23.9576V27.6853C307.991 27.9716 308.056 28.1862 308.186 28.3294C308.329 28.4855 308.544 28.5636 308.83 28.5636H310.138V30.3981H307.933ZM311.614 26.8851V24.1723H314.346V26.8851H311.614ZM316.65 26.8851V24.1723H319.382V26.8851H316.65ZM321.686 26.8851V24.1723H324.418V26.8851H321.686ZM325.903 30.3981V28.5636H327.21C327.509 28.5636 327.724 28.4855 327.854 28.3294C327.984 28.1862 328.049 27.9716 328.049 27.6853V23.9576C328.049 23.5413 328.134 23.1639 328.303 22.8257C328.485 22.4874 328.719 22.2206 329.006 22.0255C329.305 21.8173 329.63 21.7132 329.982 21.7132V21.7913C329.63 21.7913 329.305 21.6937 329.006 21.4985C328.719 21.2903 328.485 21.0171 328.303 20.6788C328.134 20.3275 328.049 19.9502 328.049 19.5468V15.8387C328.049 15.5394 327.984 15.3182 327.854 15.1751C327.724 15.032 327.509 14.9604 327.21 14.9604H325.903V13.1258H328.108C328.876 13.1258 329.455 13.334 329.845 13.7504C330.248 14.1537 330.45 14.7392 330.45 15.5069V19.2736C330.45 19.7941 330.547 20.1714 330.743 20.4056C330.938 20.6398 331.276 20.7699 331.758 20.7959L332.519 20.8545V22.65L331.758 22.7086C331.276 22.7346 330.938 22.8647 330.743 23.0989C330.547 23.3201 330.45 23.6974 330.45 24.2309V28.0171C330.45 28.7717 330.248 29.3572 329.845 29.7736C329.455 30.19 328.876 30.3981 328.108 30.3981H325.903Z" fill="white"/>
<mask id="path-18-inside-1_231_142" fill="white">
<path fill-rule="evenodd" clip-rule="evenodd" d="M407.422 198.689C407.599 195.504 407.781 192.199 407.988 188.764C408.642 180.035 407.063 171.283 403.4 163.34C399.738 155.396 394.115 148.526 387.065 143.383C380.015 138.24 371.773 134.994 363.122 133.954C354.472 132.914 345.7 134.115 337.642 137.442C301.004 152.416 295.917 208.178 303.933 241.945C309.506 265.372 329.529 280.897 350.705 282.245C354.812 301.99 352.651 321.568 322.908 328.301C322.908 328.301 291.297 356.712 351.666 356.712C406.492 356.712 414.559 328.301 414.559 328.301C393.924 309.587 399.687 258.291 405.504 230.245L404.68 230.914C406.154 221.594 406.738 211.041 407.422 198.689Z"/>
</mask>
<path fill-rule="evenodd" clip-rule="evenodd" d="M407.422 198.689C407.599 195.504 407.781 192.199 407.988 188.764C408.642 180.035 407.063 171.283 403.4 163.34C399.738 155.396 394.115 148.526 387.065 143.383C380.015 138.24 371.773 134.994 363.122 133.954C354.472 132.914 345.7 134.115 337.642 137.442C301.004 152.416 295.917 208.178 303.933 241.945C309.506 265.372 329.529 280.897 350.705 282.245C354.812 301.99 352.651 321.568 322.908 328.301C322.908 328.301 291.297 356.712 351.666 356.712C406.492 356.712 414.559 328.301 414.559 328.301C393.924 309.587 399.687 258.291 405.504 230.245L404.68 230.914C406.154 221.594 406.738 211.041 407.422 198.689Z" fill="white"/>
<path d="M407.988 188.764L407.236 188.708L407.236 188.719L407.988 188.764ZM407.422 198.689L408.175 198.731L407.422 198.689ZM387.065 143.383L386.621 143.992L387.065 143.383ZM363.122 133.954L363.032 134.702L363.122 133.954ZM337.642 137.442L337.927 138.14L337.93 138.139L337.642 137.442ZM303.933 241.945L303.2 242.119L303.2 242.12L303.933 241.945ZM350.705 282.245L351.443 282.091L351.326 281.529L350.753 281.492L350.705 282.245ZM322.908 328.301L322.742 327.566L322.55 327.61L322.404 327.741L322.908 328.301ZM414.559 328.301L415.284 328.507L415.412 328.057L415.066 327.743L414.559 328.301ZM405.504 230.245L406.242 230.398L406.671 228.328L405.029 229.66L405.504 230.245ZM404.68 230.914L403.935 230.796L403.628 232.737L405.155 231.499L404.68 230.914ZM407.236 188.719C407.029 192.155 406.846 195.462 406.67 198.647L408.175 198.731C408.351 195.545 408.534 192.242 408.74 188.81L407.236 188.719ZM402.716 163.655C406.325 171.482 407.881 180.106 407.237 188.708L408.74 188.821C409.403 179.964 407.801 171.083 404.085 163.024L402.716 163.655ZM386.621 143.992C393.567 149.059 399.107 155.828 402.716 163.655L404.085 163.024C400.369 154.964 394.663 147.994 387.509 142.774L386.621 143.992ZM363.032 134.702C371.555 135.727 379.675 138.924 386.621 143.992L387.509 142.774C380.355 137.555 371.991 134.261 363.212 133.206L363.032 134.702ZM337.93 138.139C345.869 134.861 354.51 133.678 363.032 134.702L363.212 133.206C354.433 132.15 345.532 133.369 337.354 136.746L337.93 138.139ZM304.666 241.771C300.683 224.993 299.956 202.731 304.775 182.823C309.596 162.906 319.926 145.497 337.927 138.14L337.357 136.745C318.72 144.361 308.187 162.32 303.31 182.469C298.43 202.627 299.167 225.13 303.2 242.119L304.666 241.771ZM350.753 281.492C329.902 280.165 310.161 264.87 304.666 241.771L303.2 242.12C308.85 265.874 329.156 281.628 350.657 282.997L350.753 281.492ZM323.075 329.037C338.104 325.634 346.317 318.943 350.186 310.465C354.032 302.039 353.506 292.012 351.443 282.091L349.967 282.398C352.011 292.223 352.458 301.857 348.815 309.839C345.195 317.771 337.456 324.235 322.742 327.566L323.075 329.037ZM351.666 355.959C336.607 355.959 327.402 354.183 322.032 351.594C319.357 350.305 317.669 348.831 316.667 347.309C315.67 345.793 315.319 344.18 315.401 342.545C315.568 339.228 317.515 335.83 319.513 333.196C320.501 331.893 321.48 330.806 322.211 330.044C322.577 329.664 322.88 329.366 323.09 329.164C323.195 329.063 323.277 328.987 323.332 328.936C323.359 328.91 323.38 328.891 323.394 328.879C323.4 328.873 323.405 328.868 323.408 328.865C323.41 328.864 323.411 328.863 323.412 328.862C323.412 328.862 323.412 328.862 323.412 328.862C323.412 328.862 323.412 328.862 322.908 328.301C322.404 327.741 322.404 327.741 322.404 327.742C322.403 327.742 322.403 327.743 322.402 327.743C322.401 327.744 322.399 327.746 322.397 327.748C322.392 327.752 322.386 327.758 322.377 327.765C322.361 327.78 322.337 327.802 322.307 327.83C322.246 327.887 322.158 327.97 322.046 328.077C321.823 328.291 321.505 328.604 321.124 329C320.363 329.792 319.344 330.925 318.312 332.285C316.269 334.979 314.086 338.683 313.896 342.469C313.8 344.385 314.214 346.323 315.408 348.137C316.597 349.944 318.525 351.577 321.377 352.952C327.059 355.69 336.54 357.466 351.666 357.466V355.959ZM414.559 328.301C413.834 328.096 413.834 328.095 413.835 328.095L413.835 328.094C413.835 328.094 413.834 328.095 413.834 328.096C413.834 328.097 413.833 328.101 413.831 328.106C413.828 328.116 413.823 328.133 413.816 328.156C413.801 328.203 413.777 328.276 413.744 328.373C413.676 328.566 413.568 328.856 413.411 329.229C413.096 329.975 412.583 331.052 411.797 332.35C410.226 334.945 407.561 338.428 403.201 341.919C394.491 348.893 378.944 355.959 351.666 355.959V357.466C379.214 357.466 395.114 350.326 404.143 343.095C408.654 339.483 411.432 335.863 413.087 333.131C413.914 331.766 414.459 330.623 414.8 329.815C414.97 329.411 415.089 329.091 415.167 328.868C415.206 328.757 415.234 328.67 415.253 328.609C415.263 328.579 415.27 328.555 415.275 328.538C415.278 328.53 415.28 328.523 415.281 328.518C415.282 328.515 415.283 328.513 415.283 328.511C415.283 328.51 415.284 328.509 415.284 328.509C415.284 328.508 415.284 328.507 414.559 328.301ZM404.766 230.092C401.851 244.146 398.945 264.042 399.358 282.789C399.565 292.163 400.602 301.275 402.897 309.238C405.19 317.196 408.755 324.055 414.053 328.86L415.066 327.743C410.046 323.191 406.593 316.619 404.345 308.82C402.098 301.024 401.07 292.051 400.865 282.756C400.455 264.165 403.34 244.39 406.242 230.398L404.766 230.092ZM405.155 231.499L405.979 230.831L405.029 229.66L404.205 230.328L405.155 231.499ZM406.67 198.647C405.985 211.01 405.402 221.522 403.935 230.796L405.424 231.031C406.906 221.666 407.491 211.071 408.175 198.731L406.67 198.647Z" fill="#04146C" mask="url(#path-18-inside-1_231_142)"/>
<path d="M329.801 169.102C330.154 217.323 346.525 276.473 395.285 272.361C427.674 269.657 452.29 213.155 455.647 189.213C460.77 152.597 461.535 145.611 439.982 141.386C449.404 136.485 452.82 113.22 430.795 107.587C400.173 99.8689 342.462 92.3202 360.6 74.4626C324.442 80.7156 315.373 94.5736 321.969 111.417C300.828 109.84 287.813 99.2492 288.461 83.2506C253.422 96.8269 230.691 173.609 329.801 169.102Z" fill="#04146C"/>
<path d="M354.832 199.118C352.606 208.32 347.243 216.567 339.575 222.576C329.422 230.396 321.299 223.41 321.519 212.15C321.519 201.985 327.336 185.668 338.752 182.228C350.167 178.787 357.631 188.014 354.832 199.118Z" fill="white"/>
<mask id="path-22-inside-2_231_142" fill="white">
<path d="M422.216 338.563C426.298 329.539 430.741 319.151 421.493 315.898C411.159 312.33 355.513 308.71 336.293 315.373C333.757 316.087 331.386 317.304 329.317 318.954C327.249 320.605 325.523 322.656 324.239 324.988C322.956 327.321 322.142 329.888 321.843 332.543C321.544 335.197 321.766 337.886 322.497 340.452L422.216 338.563Z"/>
</mask>
<path d="M422.216 338.563C426.298 329.539 430.741 319.151 421.493 315.898C411.159 312.33 355.513 308.71 336.293 315.373C333.757 316.087 331.386 317.304 329.317 318.954C327.249 320.605 325.523 322.656 324.239 324.988C322.956 327.321 322.142 329.888 321.843 332.543C321.544 335.197 321.766 337.886 322.497 340.452L422.216 338.563Z" fill="white"/>
<path d="M422.216 338.563L422.237 339.68L422.943 339.666L423.234 339.023L422.216 338.563ZM421.493 315.898L421.863 314.844L421.857 314.842L421.493 315.898ZM336.293 315.373L336.595 316.448L336.627 316.439L336.658 316.428L336.293 315.373ZM322.497 340.452L321.423 340.758L321.659 341.585L322.518 341.569L322.497 340.452ZM423.234 339.023C425.256 334.553 427.475 329.532 427.963 325.191C428.21 322.999 428.031 320.866 427.072 319.026C426.097 317.158 424.391 315.733 421.863 314.844L421.122 316.951C423.218 317.688 424.425 318.782 425.091 320.059C425.772 321.364 425.962 323.002 425.744 324.941C425.302 328.864 423.258 333.549 421.199 338.103L423.234 339.023ZM421.857 314.842C419.136 313.903 413.599 312.999 406.641 312.263C399.64 311.523 391.086 310.942 382.258 310.682C373.431 310.423 364.313 310.483 356.186 311.028C348.083 311.571 340.878 312.601 335.927 314.318L336.658 316.428C341.317 314.813 348.276 313.797 356.335 313.256C364.371 312.718 373.414 312.657 382.192 312.915C390.97 313.173 399.467 313.75 406.406 314.484C413.389 315.222 418.682 316.109 421.128 316.953L421.857 314.842ZM335.99 314.298C333.311 315.052 330.806 316.338 328.621 318.081L330.014 319.827C331.967 318.269 334.204 317.121 336.595 316.448L335.99 314.298ZM328.621 318.081C326.436 319.824 324.615 321.989 323.261 324.45L325.218 325.526C326.43 323.322 328.061 321.385 330.014 319.827L328.621 318.081ZM323.261 324.45C321.907 326.911 321.048 329.619 320.733 332.418L322.953 332.668C323.235 330.158 324.006 327.731 325.218 325.526L323.261 324.45ZM320.733 332.418C320.418 335.217 320.652 338.051 321.423 340.758L323.571 340.146C322.88 337.72 322.67 335.178 322.953 332.668L320.733 332.418ZM322.518 341.569L422.237 339.68L422.195 337.447L322.476 339.335L322.518 341.569Z" fill="#04146C" mask="url(#path-22-inside-2_231_142)"/>
<path d="M426.169 323.795C380.862 337.285 340.334 327.731 325.291 322.11C315.991 319.299 273.311 322.143 275.338 377.062C275.338 377.062 292.993 377.062 284.586 377.062H301.399H311.133H426.169H432.797H442.097H465.104C463.334 342.775 462.584 335.574 450.946 329.416C445.636 326.607 436.787 323.795 426.169 323.795Z" fill="#3957F1"/>
<rect width="116.276" height="25.8391" transform="matrix(-1 0 0 1 543.697 336.268)" fill="#3FFFF3"/>
<rect x="-0.538314" y="0.538314" width="19.3793" height="19.3793" transform="matrix(-1 0 0 1 19.3794 353.494)" stroke="#04146C" stroke-width="1.07663"/>
<path d="M188.114 206.928H234.334" stroke="#0A2FF1" stroke-width="3.22989" stroke-miterlimit="10" stroke-linecap="round"/>
<path d="M246.745 207.253H284.039" stroke="#0A2FF1" stroke-width="3.22989" stroke-miterlimit="10" stroke-linecap="round"/>
<path d="M228.538 190.761H284.039" stroke="#0A2FF1" stroke-width="3.22989" stroke-miterlimit="10" stroke-linecap="round"/>
<path d="M188.114 223.745H257.533" stroke="#0A2FF1" stroke-width="3.22989" stroke-miterlimit="10" stroke-linecap="round"/>
<path d="M268.207 223.745H285.306" stroke="#0A2FF1" stroke-width="3.22989" stroke-miterlimit="10" stroke-linecap="round"/>
<path d="M162.379 206.928H177.383" stroke="#5974FF" stroke-width="3.22989" stroke-miterlimit="10" stroke-linecap="round"/>
<path d="M146.04 190.892H162.848" stroke="#04146C" stroke-width="3.22989" stroke-miterlimit="10" stroke-linecap="round"/>
<path d="M174.23 190.892H215.299" stroke="#5974FF" stroke-width="3.22989" stroke-miterlimit="10" stroke-linecap="round"/>
<path d="M228.538 240.441H285.307" stroke="#0A2FF1" stroke-width="3.22989" stroke-miterlimit="10" stroke-linecap="round"/>
<path d="M146.04 240.572H162.848" stroke="#04146C" stroke-width="3.22989" stroke-miterlimit="10" stroke-linecap="round"/>
<path d="M174.23 240.572H215.299" stroke="#5974FF" stroke-width="3.22989" stroke-miterlimit="10" stroke-linecap="round"/>
<path d="M162.379 223.477H177.383" stroke="#5974FF" stroke-width="3.22989" stroke-miterlimit="10" stroke-linecap="round"/>
<path d="M115.199 173.512H144.566" stroke="#5974FF" stroke-width="3.22989" stroke-miterlimit="10" stroke-linecap="round"/>
<path d="M115.199 258.566H144.566" stroke="#5974FF" stroke-width="3.22989" stroke-miterlimit="10" stroke-linecap="round"/>
<path d="M393.755 119.762V30.7553H521.609V119.762H393.755Z" stroke="#3FFFF3" stroke-width="1.51062"/>
<path d="M414.259 60.9417H404.142V70.6633H414.259V60.9417Z" stroke="#3FFFF3" stroke-width="0.913962" stroke-linecap="round" stroke-linejoin="round"/>
<path d="M394.219 50.5091H521.261" stroke="#3FFFF3" stroke-width="1.51062" stroke-linecap="round" stroke-linejoin="round"/>
<path d="M503.742 35.9266V44.1756" stroke="#3FFFF3" stroke-width="0.609308" stroke-linecap="round" stroke-linejoin="round"/>
<path d="M507.305 38.441H513.737" stroke="#3FFFF3" stroke-width="0.609308" stroke-linecap="round" stroke-linejoin="round"/>
<path d="M507.305 39.8685H513.737" stroke="#3FFFF3" stroke-width="0.609308" stroke-linecap="round" stroke-linejoin="round"/>
<path d="M507.305 41.3087H513.737" stroke="#3FFFF3" stroke-width="0.609308" stroke-linecap="round" stroke-linejoin="round"/>
<path d="M507.305 42.7477H513.737" stroke="#3FFFF3" stroke-width="0.609308" stroke-linecap="round" stroke-linejoin="round"/>
<path d="M405.312 135.446L405.312 136.192L406.055 136.192" stroke="#3FFFF3" stroke-width="1.04658" stroke-linecap="round" stroke-linejoin="round"/>
<path d="M410.422 136.192L536.099 136.192" stroke="#3FFFF3" stroke-width="1.04658" stroke-linecap="round" stroke-linejoin="round" stroke-dasharray="1.02 3.07"/>
<path d="M538.269 136.192L539.012 136.192L539.012 135.446" stroke="#3FFFF3" stroke-width="1.04658" stroke-linecap="round" stroke-linejoin="round"/>
<path d="M539.022 130.965L539.022 49.7151" stroke="#3FFFF3" stroke-width="1.04658" stroke-linecap="round" stroke-linejoin="round" stroke-dasharray="1.05 3.14"/>
<path d="M539.012 47.4904L539.012 46.745L538.269 46.745" stroke="#3FFFF3" stroke-width="1.04658" stroke-linecap="round" stroke-linejoin="round"/>
<path d="M472.181 133.975C473.395 133.975 474.38 134.963 474.38 136.182C474.38 137.4 473.395 138.388 472.181 138.388C470.967 138.388 469.982 137.4 469.982 136.182C469.982 134.963 470.967 133.975 472.181 133.975Z" fill="#3FFFF3" stroke="#3FFFF3" stroke-width="1.04658" stroke-linecap="round" stroke-linejoin="round"/>
<path d="M539.016 89.2575C540.23 89.2575 541.215 90.2453 541.215 91.4639C541.215 92.6824 540.23 93.6703 539.016 93.6703C537.802 93.6703 536.817 92.6824 536.817 91.4639C536.817 90.2453 537.802 89.2575 539.016 89.2575Z" fill="#3FFFF3" stroke="#3FFFF3" stroke-width="1.04658" stroke-linecap="round" stroke-linejoin="round"/>
<path d="M541.575 49.2955L536.45 49.2955L536.45 44.1522L541.575 44.1522L541.575 49.2955Z" fill="#3FFFF3" stroke="#3FFFF3" stroke-width="1.04658" stroke-linecap="round" stroke-linejoin="round"/>
<path d="M541.575 138.753L536.45 138.753L536.45 133.61L541.575 133.61L541.575 138.753Z" fill="#3FFFF3" stroke="#3FFFF3" stroke-width="1.04658" stroke-linecap="round" stroke-linejoin="round"/>
<path d="M407.874 138.753L402.749 138.753L402.749 133.61L407.874 133.61L407.874 138.753Z" fill="#3FFFF3" stroke="#3FFFF3" stroke-width="1.04658" stroke-linecap="round" stroke-linejoin="round"/>
<path d="M488.28 86.1976L490.851 92.9922L484.876 99.0004L478.106 96.4448L473.319 83.4392L474.249 82.4993L474.341 82.401L475.302 81.4365L488.28 86.1976Z" fill="#04146C" stroke="white" stroke-width="1.05458" stroke-linecap="round" stroke-linejoin="round"/>
<path d="M474.341 82.3996C474.37 82.4252 474.397 82.454 474.42 82.4855L474.341 82.3996Z" fill="#04146C"/>
<path d="M474.341 82.3996C474.37 82.4252 474.397 82.454 474.42 82.4855" stroke="white" stroke-width="1.05458" stroke-linecap="round" stroke-linejoin="round"/>
<path d="M481.644 89.5853L482.458 90.4085C482.432 90.512 482.377 90.6058 482.299 90.6788C482.229 90.7543 482.14 90.8095 482.042 90.8385L481.215 90.003L473.986 82.7723L474.402 82.3422L481.644 89.5853Z" fill="#04146C" stroke="white" stroke-width="1.05458" stroke-linecap="round" stroke-linejoin="round"/>
<path d="M482.622 89.7475C482.736 89.8605 482.817 90.0031 482.854 90.1593C482.892 90.3155 482.886 90.4793 482.836 90.6321C482.801 90.7716 482.729 90.8989 482.628 91.0008C482.529 91.0953 482.41 91.1666 482.279 91.2096C482.125 91.261 481.959 91.2687 481.8 91.2319C481.641 91.1951 481.496 91.1151 481.379 91.0008C481.264 90.8836 481.183 90.7367 481.145 90.5763C481.107 90.416 481.114 90.2482 481.165 90.0915C481.208 89.9593 481.281 89.8393 481.379 89.7414C481.478 89.638 481.603 89.5637 481.741 89.5263C481.894 89.478 482.057 89.4731 482.212 89.5121C482.368 89.5512 482.51 89.6326 482.622 89.7475Z" fill="#04146C" stroke="white" stroke-width="1.05458" stroke-linecap="round" stroke-linejoin="round"/>
<path d="M474.427 82.3167V82.6792V82.8328H473.93L474.255 82.501L474.347 82.4027L474.427 82.3167Z" fill="#04146C" stroke="white" stroke-width="1.05458" stroke-miterlimit="10"/>
<path d="M498.823 97.3081L489.702 106.48L484.878 99.0099L490.853 92.9955L498.823 97.3081Z" fill="#04146C" stroke="white" stroke-width="1.05458" stroke-linecap="round" stroke-linejoin="round"/>
<rect x="575" y="294" width="18" height="18" fill="#5974FF"/>
</svg>
