<svg width="598" height="393" viewBox="0 0 598 393" fill="none" xmlns="http://www.w3.org/2000/svg">
<rect x="312.714" y="194" width="284.526" height="110.223" fill="#3957F1"/>
<rect x="245.826" y="277.146" width="80.0114" height="55.7299" fill="#04146C" stroke="#04146C" stroke-width="0.556161"/>
<rect x="228.589" y="328.151" width="114.491" height="8.75561" fill="#04146C"/>
<path d="M469.01 17.1636H102.006C93.852 17.1636 87.2417 23.6933 87.2417 31.7481V290.193C87.2417 298.248 93.852 304.778 102.006 304.778H469.01C477.164 304.778 483.774 298.248 483.774 290.193V31.7481C483.774 23.6933 477.164 17.1636 469.01 17.1636Z" fill="#04146C" stroke="#04146C" stroke-width="1.11232" stroke-linecap="round" stroke-linejoin="round"/>
<path d="M87.2417 260.077H483.774V290.192C483.774 294.06 482.219 297.77 479.45 300.505C476.681 303.24 472.926 304.777 469.01 304.777H102.024C98.1078 304.777 94.3524 303.24 91.5835 300.505C88.8147 297.77 87.2591 294.06 87.2591 290.192V260.077H87.2417Z" fill="white" stroke="#04146C" stroke-width="1.11232" stroke-linecap="round" stroke-linejoin="round"/>
<path d="M463.841 35.0519H107.197V238.255H463.841V35.0519Z" fill="white"/>
<path d="M463.841 35.0519H107.197V238.255H463.841V35.0519Z" stroke="white" stroke-width="1.11232" stroke-linecap="round" stroke-linejoin="round"/>
<ellipse cx="285.122" cy="282.452" rx="8.4808" ry="8.37746" fill="#04146C"/>
<path d="M343.61 74.4114L289.898 99.5438L282.831 136.866L365.914 153.908L390.27 136.866L398.388 210.046H248.192" stroke="#04146C" stroke-width="1.11232"/>
<path d="M302.133 163.068L284.251 148.412L286.362 171.268L292.066 163.188L302.133 163.068Z" fill="#04146C"/>
<path d="M293.792 95.3543H287.074V101.991H293.792V95.3543Z" fill="white" stroke="#04146C" stroke-width="1.11232" stroke-linecap="round" stroke-linejoin="round"/>
<path d="M252.273 205.895H245.555V212.532H252.273V205.895Z" fill="white" stroke="#04146C" stroke-width="1.11232" stroke-linecap="round" stroke-linejoin="round"/>
<path d="M286.597 133.053H279.879V139.689H286.597V133.053Z" fill="white" stroke="#04146C" stroke-width="1.11232" stroke-linecap="round" stroke-linejoin="round"/>
<path d="M343.266 73.0149H336.547V79.6513H343.266V73.0149Z" fill="white" stroke="#04146C" stroke-width="1.11232" stroke-linecap="round" stroke-linejoin="round"/>
<path d="M371.251 149.656H364.533V156.292H371.251V149.656Z" fill="white" stroke="#04146C" stroke-width="1.11232" stroke-linecap="round" stroke-linejoin="round"/>
<path d="M400.583 206.395H393.865V213.031H400.583V206.395Z" fill="white" stroke="#04146C" stroke-width="1.11232" stroke-linecap="round" stroke-linejoin="round"/>
<path d="M393.781 134.138H387.063V140.774H393.781V134.138Z" fill="white" stroke="#04146C" stroke-width="1.11232" stroke-linecap="round" stroke-linejoin="round"/>
<path d="M157.382 257.542V256.7H156.528" stroke="#04146C" stroke-width="0.44265" stroke-linecap="round" stroke-linejoin="round"/>
<path d="M151.51 256.7H7.30121" stroke="#04146C" stroke-width="0.44265" stroke-linecap="round" stroke-linejoin="round" stroke-dasharray="0.43 1.3"/>
<path d="M4.81836 256.7H3.96488V257.542" stroke="#04146C" stroke-width="0.44265" stroke-linecap="round" stroke-linejoin="round"/>
<path d="M3.94629 262.594V354.362" stroke="#04146C" stroke-width="0.44265" stroke-linecap="round" stroke-linejoin="round" stroke-dasharray="0.44 1.33"/>
<path d="M3.96488 356.887V357.729H4.81836" stroke="#04146C" stroke-width="0.44265" stroke-linecap="round" stroke-linejoin="round"/>
<path d="M9.80463 357.73H154.013" stroke="#04146C" stroke-width="0.44265" stroke-linecap="round" stroke-linejoin="round" stroke-dasharray="0.43 1.3"/>
<path d="M156.528 357.729H157.382V356.887" stroke="#04146C" stroke-width="0.44265" stroke-linecap="round" stroke-linejoin="round"/>
<path d="M157.362 351.838V260.069" stroke="#04146C" stroke-width="0.44265" stroke-linecap="round" stroke-linejoin="round" stroke-dasharray="0.44 1.33"/>
<path d="M80.6549 259.195C79.2616 259.195 78.1322 258.079 78.1322 256.702C78.1322 255.326 79.2616 254.21 80.6549 254.21C82.0482 254.21 83.1777 255.326 83.1777 256.702C83.1777 258.079 82.0482 259.195 80.6549 259.195Z" fill="#04146C" stroke="#04146C" stroke-width="0.44265" stroke-linecap="round" stroke-linejoin="round"/>
<path d="M157.362 309.708C155.969 309.708 154.84 308.592 154.84 307.216C154.84 305.839 155.969 304.723 157.362 304.723C158.756 304.723 159.885 305.839 159.885 307.216C159.885 308.592 158.756 309.708 157.362 309.708Z" fill="#04146C" stroke="#04146C" stroke-width="0.44265" stroke-linecap="round" stroke-linejoin="round"/>
<path d="M80.6549 360.222C79.2616 360.222 78.1322 359.107 78.1322 357.73C78.1322 356.354 79.2616 355.238 80.6549 355.238C82.0482 355.238 83.1777 356.354 83.1777 357.73C83.1777 359.107 82.0482 360.222 80.6549 360.222Z" fill="#04146C" stroke="#04146C" stroke-width="0.44265" stroke-linecap="round" stroke-linejoin="round"/>
<path d="M3.94742 309.707C2.55412 309.707 1.42463 308.591 1.42463 307.215C1.42463 305.839 2.55412 304.723 3.94742 304.723C5.34073 304.723 6.47021 305.839 6.47021 307.215C6.47021 308.591 5.34073 309.707 3.94742 309.707Z" fill="#04146C" stroke="#04146C" stroke-width="0.44265" stroke-linecap="round" stroke-linejoin="round"/>
<path d="M1.01515 354.833H6.896V360.642H1.01515V354.833Z" fill="#04146C" stroke="#04146C" stroke-width="0.44265" stroke-linecap="round" stroke-linejoin="round"/>
<path d="M1.01613 253.805H6.89697V259.614H1.01613V253.805Z" fill="#04146C" stroke="#04146C" stroke-width="0.44265" stroke-linecap="round" stroke-linejoin="round"/>
<path d="M154.431 354.833H160.312V360.642H154.431V354.833Z" fill="#04146C" stroke="#04146C" stroke-width="0.44265" stroke-linecap="round" stroke-linejoin="round"/>
<path d="M154.43 253.805H160.311V259.614H154.43V253.805Z" fill="#04146C" stroke="#04146C" stroke-width="0.44265" stroke-linecap="round" stroke-linejoin="round"/>
<path d="M13.6652 265.645H147.186V349.448H13.6652V265.645Z" fill="white" stroke="#04146C" stroke-width="1.32795" stroke-linecap="round" stroke-linejoin="round"/>
<path d="M127.043 161.856V48.1138H208.562V161.856H127.043Z" stroke="#04146C" stroke-width="0.462871"/>
<path d="M139.595 75.2014H160.656C163.163 75.2014 165.19 77.2081 165.19 79.6775V101.241C165.19 103.71 163.163 105.717 160.656 105.717H139.595C137.088 105.717 135.061 103.71 135.061 101.241V79.6775C135.061 77.2081 137.088 75.2014 139.595 75.2014Z" stroke="#04146C" stroke-width="0.462871"/>
<path d="M127.043 62.0338V48.1138H208.562V62.0338H127.043Z" stroke="#04146C" stroke-width="0.462871"/>
<path d="M146.118 82.5475L146.118 82.5478L158.808 93.1162L158.754 93.206L158.9 93.333C159.015 93.4334 159.097 93.5665 159.136 93.715C159.175 93.8636 159.168 94.0206 159.117 94.1654C159.066 94.3101 158.973 94.4358 158.85 94.5261C158.729 94.6157 158.583 94.6665 158.433 94.6722H151.69H151.567L151.498 94.7741L147.773 100.288C147.703 100.385 147.611 100.463 147.505 100.518C147.399 100.573 147.281 100.601 147.161 100.601H147.161H146.95C146.814 100.561 146.692 100.483 146.599 100.375C146.5 100.26 146.438 100.117 146.422 99.966C146.422 99.9655 146.422 99.965 146.422 99.9645L144.913 83.1936L144.913 83.1936L144.913 83.1921C144.898 83.045 144.928 82.897 144.998 82.767C145.067 82.637 145.173 82.531 145.302 82.4622C145.431 82.3934 145.578 82.3648 145.723 82.38C145.868 82.3951 146.005 82.4533 146.118 82.5475Z" stroke="#04146C" stroke-width="0.462871"/>
<path d="M188.889 93.1553L188.771 93.1568L188.703 93.2534L184.233 99.5955L182.541 81.3782L196.776 93.0549L188.889 93.1553Z" stroke="#04146C" stroke-width="0.462871"/>
<path d="M197.948 103.519L200.851 100.827L201.081 104.044L197.948 103.519Z" stroke="#04146C" stroke-width="0.462871"/>
<path d="M136.519 148.115L153.073 128.909L155.344 130.819L138.79 150.025L136.519 148.115Z" stroke="#04146C" stroke-width="0.462871"/>
<path d="M139.605 128.514C139.913 128.004 140.166 127.546 140.359 127.124C140.711 126.355 140.877 125.687 140.822 125.022C140.766 124.356 140.493 123.723 140.019 123.019C139.756 122.628 139.429 122.212 139.037 121.752C139.559 122.06 140.028 122.312 140.46 122.505C141.24 122.853 141.918 123.016 142.592 122.961C143.266 122.907 143.909 122.637 144.624 122.169C145.02 121.91 145.444 121.586 145.91 121.198C145.596 121.715 145.339 122.179 145.142 122.607C144.787 123.378 144.619 124.048 144.673 124.715C144.727 125.382 145 126.017 145.473 126.721C145.733 127.108 146.057 127.52 146.444 127.975C145.927 127.668 145.462 127.416 145.033 127.223C144.254 126.872 143.576 126.707 142.903 126.76C142.23 126.813 141.589 127.082 140.877 127.55C140.484 127.808 140.066 128.129 139.605 128.514Z" stroke="#04146C" stroke-width="0.462871"/>
<path d="M158.747 130.46C158.837 130.297 158.915 130.142 158.983 129.994C159.202 129.513 159.311 129.085 159.278 128.654C159.245 128.223 159.072 127.815 158.778 127.371C158.683 127.228 158.575 127.08 158.453 126.924C158.627 127.018 158.791 127.1 158.948 127.17C159.436 127.389 159.869 127.499 160.304 127.468C160.74 127.437 161.15 127.268 161.597 126.977C161.74 126.884 161.888 126.778 162.044 126.659C161.954 126.823 161.875 126.978 161.807 127.127C161.588 127.608 161.479 128.036 161.512 128.467C161.545 128.898 161.718 129.306 162.012 129.75C162.104 129.889 162.209 130.033 162.326 130.184C162.157 130.092 161.996 130.011 161.842 129.942C161.353 129.722 160.92 129.613 160.485 129.645C160.049 129.677 159.639 129.849 159.192 130.141C159.05 130.234 158.902 130.34 158.747 130.46Z" stroke="#04146C" stroke-width="0.462871"/>
<path d="M155.898 139.618C155.912 139.59 155.925 139.562 155.938 139.534C156.098 139.183 156.178 138.864 156.15 138.541C156.122 138.217 155.988 137.917 155.772 137.598C155.759 137.578 155.744 137.557 155.73 137.537C155.757 137.549 155.784 137.562 155.81 137.573C156.165 137.731 156.486 137.81 156.812 137.783C157.137 137.755 157.44 137.624 157.763 137.411C157.79 137.393 157.817 137.374 157.845 137.355C157.831 137.384 157.817 137.413 157.805 137.442C157.646 137.793 157.565 138.111 157.591 138.436C157.617 138.76 157.748 139.062 157.963 139.384C157.979 139.408 157.995 139.433 158.012 139.457C157.986 139.444 157.96 139.432 157.934 139.421C157.58 139.261 157.258 139.179 156.932 139.203C156.605 139.227 156.3 139.356 155.975 139.567C155.949 139.583 155.924 139.6 155.898 139.618Z" stroke="#04146C" stroke-width="0.462871"/>
<path d="M194.366 147.134L194.248 147.135L194.18 147.232L190.281 152.751L188.809 136.832L201.264 147.055L194.366 147.134Z" stroke="#04146C" stroke-width="0.462871"/>
<path d="M186.239 143.893C183.076 143.893 180.214 142.972 178.149 141.496C176.084 140.019 174.831 137.999 174.831 135.794C174.831 133.589 176.084 131.569 178.149 130.092C180.214 128.616 183.076 127.695 186.239 127.695C189.402 127.695 192.264 128.616 194.329 130.092C196.394 131.569 197.647 133.589 197.647 135.794C197.647 138 196.399 140.019 194.337 141.496C192.275 142.972 189.414 143.893 186.239 143.893ZM186.239 128.23C183.266 128.23 180.562 129.06 178.594 130.416C176.628 131.771 175.378 133.668 175.378 135.794C175.378 137.92 176.628 139.817 178.594 141.172C180.562 142.528 183.266 143.358 186.239 143.358C189.212 143.358 191.916 142.522 193.884 141.164C195.85 139.806 197.1 137.91 197.1 135.794C197.1 133.678 195.85 131.782 193.884 130.424C191.916 129.066 189.212 128.23 186.239 128.23Z" stroke="#04146C" stroke-width="0.462871"/>
<path d="M179.166 142.222C178.64 142.226 178.125 142.075 177.687 141.79C177.249 141.504 176.907 141.096 176.705 140.619C176.502 140.141 176.449 139.615 176.55 139.108C176.651 138.6 176.903 138.133 177.274 137.767C177.645 137.4 178.118 137.151 178.634 137.05C179.149 136.95 179.684 137.004 180.168 137.204C180.653 137.404 181.065 137.742 181.354 138.175C181.643 138.607 181.795 139.114 181.791 139.631C181.786 140.316 181.508 140.971 181.017 141.456C180.526 141.941 179.861 142.217 179.166 142.222ZM179.17 137.558C178.755 137.553 178.347 137.67 177.999 137.895C177.651 138.12 177.377 138.442 177.215 138.821C177.052 139.2 177.006 139.619 177.085 140.023C177.163 140.428 177.361 140.8 177.654 141.093C177.947 141.385 178.32 141.585 178.727 141.667C179.135 141.749 179.557 141.709 179.942 141.553C180.326 141.397 180.655 141.132 180.887 140.79C181.119 140.448 181.243 140.045 181.244 139.633C181.244 139.086 181.025 138.561 180.637 138.173C180.248 137.785 179.721 137.564 179.17 137.558Z" stroke="#04146C" stroke-width="0.462871"/>
<path d="M178.464 145.144L178.289 144.648C179.459 144.277 180.456 143.495 181.086 142.444L181.092 142.434L181.097 142.423C181.452 141.671 181.531 140.822 181.326 140.022L181.855 139.844C182.104 140.77 182.017 141.757 181.604 142.63C181.249 143.256 180.771 143.805 180.198 144.247C179.679 144.646 179.091 144.95 178.464 145.144Z" stroke="#04146C" stroke-width="0.462871"/>
<path d="M138.171 55.6314L140.964 57.9482V58.7135L137.034 55.4527L140.964 52.1731V52.9371L138.17 55.2757L137.957 55.454L138.171 55.6314Z" stroke="#04146C" stroke-width="0.462871"/>
<path d="M133.224 55.6308L135.996 57.9477V58.7135L132.065 55.4527L135.996 52.1731V52.9377L133.223 55.2763L133.012 55.454L133.224 55.6308Z" stroke="#04146C" stroke-width="0.462871"/>
<rect x="0.154657" y="0.565846" width="41.2566" height="149.369" transform="matrix(0.871493 0.490494 -0.500877 0.865487 498.359 211.409)" fill="white" stroke="#04146C" stroke-width="0.834593"/>
<ellipse cx="4.21698" cy="4.22826" rx="4.21698" ry="4.22826" transform="matrix(0.985583 0.189418 -0.197059 0.976697 446.136 331.609)" fill="#04146C"/>
<path d="M523.943 233.585L501.372 220.912L492.118 236.918L514.69 249.591L523.943 233.585Z" fill="#04146C"/>
<path opacity="0.7" d="M523.947 233.608L501.353 220.909L492.123 236.888L514.718 249.588L523.947 233.608Z" fill="white"/>
<path d="M512.614 253.303L490.004 240.608L480.751 256.614L503.361 269.309L512.614 253.303Z" fill="#04146C"/>
<path opacity="0.3" d="M512.629 253.333L489.995 240.611L480.765 256.591L503.399 269.313L512.629 253.333Z" fill="white"/>
<path d="M501.193 273.065L478.622 260.392L469.368 276.398L491.939 289.071L501.193 273.065Z" fill="#04146C"/>
<path d="M489.84 292.823L467.269 280.15L458.015 296.156L480.586 308.83L489.84 292.823Z" fill="#04146C"/>
<path opacity="0.2" d="M489.842 292.85L467.248 280.151L458.018 296.13L480.613 308.83L489.842 292.85Z" fill="#04146C"/>
<path d="M478.457 312.521L455.847 299.826L446.594 315.832L469.204 328.527L478.457 312.521Z" fill="#04146C"/>
<path opacity="0.3" d="M478.458 312.547L455.824 299.826L446.595 315.806L469.229 328.527L478.458 312.547Z" fill="#04146C"/>
<rect x="-0.106906" y="0.577127" width="41.3047" height="149.461" transform="matrix(0.571992 0.815276 -0.828178 0.56774 548.841 244.491)" fill="white" stroke="#04146C" stroke-width="0.834593"/>
<ellipse cx="4.22071" cy="4.22456" rx="4.22071" ry="4.22456" transform="matrix(0.805575 0.592411 -0.602431 0.798249 449.184 330.58)" fill="#04146C"/>
<path d="M562.153 275.304L547.336 254.212L532.038 264.718L546.856 285.81L562.153 275.304Z" fill="#04146C"/>
<path opacity="0.7" d="M562.156 275.313L547.331 254.213L532.042 264.712L546.867 285.811L562.156 275.313Z" fill="white"/>
<path d="M543.336 288.271L528.493 267.143L513.196 277.649L528.039 298.777L543.336 288.271Z" fill="#04146C"/>
<path opacity="0.3" d="M543.324 288.283L528.473 267.147L513.184 277.645L528.035 298.781L543.324 288.283Z" fill="white"/>
<path d="M524.389 301.234L509.572 280.142L494.275 290.648L509.092 311.739L524.389 301.234Z" fill="#04146C"/>
<path d="M505.526 314.232L490.708 293.14L475.411 303.646L490.228 324.738L505.526 314.232Z" fill="#04146C"/>
<path opacity="0.2" d="M505.535 314.234L490.709 293.134L475.42 303.633L490.246 324.732L505.535 314.234Z" fill="#04146C"/>
<path d="M486.661 327.152L471.818 306.024L456.52 316.53L471.363 337.658L486.661 327.152Z" fill="#04146C"/>
<path opacity="0.3" d="M486.658 327.163L471.807 306.027L456.518 316.526L471.369 337.662L486.658 327.163Z" fill="#04146C"/>
<rect x="-0.35698" y="0.469533" width="41.1697" height="149.805" transform="matrix(0.139829 0.984977 -0.995289 0.140201 579.687 298.395)" fill="white" stroke="#04146C" stroke-width="0.834593"/>
<ellipse cx="4.22236" cy="4.22303" rx="4.22236" ry="4.22303" transform="matrix(0.450283 0.887969 -0.899978 0.445909 451.582 330.865)" fill="#04146C"/>
<path d="M577.644 331.622L574.018 306.182L555.585 308.796L559.211 334.235L577.644 331.622Z" fill="#04146C"/>
<path opacity="0.7" d="M577.646 331.607L574.03 306.175L555.587 308.796L559.203 334.228L577.646 331.607Z" fill="white"/>
<path d="M554.929 334.85L551.297 309.367L532.864 311.98L536.496 337.464L554.929 334.85Z" fill="#04146C"/>
<path opacity="0.3" d="M554.91 334.847L551.288 309.37L532.846 311.992L536.468 337.468L554.91 334.847Z" fill="white"/>
<path d="M532.106 338.025L528.481 312.586L510.048 315.199L513.674 340.639L532.106 338.025Z" fill="#04146C"/>
<path d="M509.347 341.263L505.722 315.823L487.289 318.437L490.914 343.876L509.347 341.263Z" fill="#04146C"/>
<path opacity="0.2" d="M509.355 341.258L505.739 315.825L487.296 318.446L490.912 343.879L509.355 341.258Z" fill="#04146C"/>
<path d="M486.615 344.438L482.983 318.954L464.55 321.568L468.182 347.052L486.615 344.438Z" fill="#04146C"/>
<path opacity="0.3" d="M486.614 344.431L482.992 318.955L464.549 321.576L468.172 347.053L486.614 344.431Z" fill="#04146C"/>
<path d="M409.536 1.59998H535.646V80.7522H409.536V1.59998Z" fill="white" stroke="#04146C" stroke-width="2.6532" stroke-linecap="round" stroke-linejoin="round"/>
<path d="M409.537 57.376L423.56 71.228L461.491 33.7591L477.446 49.5196L502.883 24.3919L535.646 56.7399V80.7543H409.537V57.376Z" fill="#3957F1"/>
<path d="M435.666 32.8667C430.749 32.8667 426.763 28.9292 426.763 24.072C426.763 19.2148 430.749 15.2773 435.666 15.2773C440.583 15.2773 444.569 19.2148 444.569 24.072C444.569 28.9292 440.583 32.8667 435.666 32.8667Z" fill="#04146C" stroke="#04146C" stroke-width="0.8844" stroke-linecap="round" stroke-linejoin="round"/>
<path d="M409.536 1.59998H535.646V80.7522H409.536V1.59998Z" stroke="#04146C" stroke-width="2.6532" stroke-linecap="round" stroke-linejoin="round"/>
<rect x="24.2422" y="180.072" width="152.282" height="30.1802" fill="#3FFFF3"/>
<path d="M100.754 308.506L71.0376 325.393L71.0376 291.618L100.754 308.506Z" fill="#04146C"/>
</svg>
