<svg width="598" height="393" viewBox="0 0 598 393" fill="none" xmlns="http://www.w3.org/2000/svg">
<rect x="-0.538314" y="0.538314" width="23.2216" height="24.1561" transform="matrix(-1 0 0 1 596.923 265.935)" stroke="#04146C" stroke-width="1.07663"/>
<rect x="-0.538314" y="0.538314" width="23.2216" height="24.1561" transform="matrix(-1 0 0 1 116.923 355.935)" stroke="#04146C" stroke-width="1.07663"/>
<rect x="382.727" y="30.4291" width="210.273" height="101.865" fill="#3FFFF3"/>
<path d="M423.191 12.3657C426.893 9.89213 431.245 8.57184 435.697 8.57178C441.666 8.57804 447.388 10.9518 451.609 15.1723C455.829 19.3928 458.203 25.1153 458.209 31.084C458.209 35.5362 456.889 39.8884 454.415 43.5903C451.942 47.2923 448.426 50.1777 444.313 51.8815C440.199 53.5854 435.673 54.0312 431.306 53.1626C426.939 52.2939 422.928 50.1499 419.78 47.0016C416.631 43.8533 414.487 39.8421 413.619 35.4753C412.75 31.1084 413.196 26.5821 414.9 22.4686C416.603 18.3551 419.489 14.8393 423.191 12.3657Z" fill="white" stroke="#0A2FF1" stroke-width="1.14355"/>
<path d="M570.838 99.6544H521.152V149.34H570.838V99.6544Z" fill="#3957F1"/>
<path d="M541.379 129.766H534.668V122.097H541.206C541.206 121.512 541.264 121.062 541.273 120.602C541.273 118.598 541.273 116.576 541.427 114.582C541.839 110.191 544.533 107.095 548.875 106.491C551.588 106.117 554.387 106.424 557.215 106.424V113.402C556.257 113.402 555.202 113.402 554.205 113.402C553.307 113.373 552.408 113.43 551.521 113.575C550.939 113.667 550.407 113.96 550.018 114.403C549.63 114.846 549.408 115.411 549.393 116C549.316 117.918 549.393 119.912 549.393 122.03H556.995C556.669 124.532 556.401 126.823 556.036 129.162C556.036 129.392 555.423 129.67 555.078 129.68C553.237 129.738 551.406 129.68 549.422 129.68V149.303H541.331L541.379 129.766Z" fill="white"/>
<path d="M484.788 64.2609H334.308V63.1382H266.074V64.2609H114.974C113.637 64.2609 112.313 64.5241 111.079 65.0354C109.844 65.5466 108.721 66.296 107.776 67.2408C106.831 68.1855 106.081 69.307 105.57 70.5414C105.058 71.7757 104.795 73.0987 104.795 74.4347V280.385C104.795 281.721 105.058 283.044 105.57 284.279C106.081 285.513 106.831 286.635 107.776 287.579C108.721 288.524 109.844 289.273 111.078 289.785C112.313 290.296 113.637 290.559 114.974 290.559H484.788C487.488 290.559 490.077 289.487 491.986 287.579C493.895 285.671 494.967 283.084 494.967 280.385V74.4347C494.967 73.0987 494.704 71.7757 494.192 70.5414C493.681 69.307 492.931 68.1855 491.986 67.2408C491.041 66.296 489.918 65.5466 488.684 65.0354C487.449 64.5241 486.125 64.2609 484.788 64.2609Z" fill="#04146C"/>
<path d="M481.515 82.2408H118.636V286.839H481.515V82.2408Z" fill="#F8F8F8"/>
<path d="M300.311 76.6608C302.367 76.6608 304.033 74.9953 304.033 72.9409C304.033 70.8864 302.367 69.2209 300.311 69.2209C298.256 69.2209 296.589 70.8864 296.589 72.9409C296.589 74.9953 298.256 76.6608 300.311 76.6608Z" fill="white"/>
<rect x="87" y="288.541" width="427.087" height="13.8406" rx="6.92028" fill="#04146C"/>
<rect x="146.096" y="114.977" width="219.501" height="13.261" fill="#3957F1"/>
<rect x="392.13" y="114.977" width="61.5085" height="13.261" fill="#0A2FF1"/>
<rect x="146.596" y="151.643" width="90.6597" height="100.266" stroke="#04146C"/>
<path d="M392.13 194.543H453.639" stroke="#04146C" stroke-linejoin="round"/>
<path d="M392.13 210.215H453.639" stroke="#04146C" stroke-linejoin="round"/>
<path d="M257.053 163.198H359.567" stroke="#04146C" stroke-linejoin="round"/>
<path d="M257.053 181.282H359.567" stroke="#04146C" stroke-linejoin="round"/>
<path d="M257.053 199.365H359.567" stroke="#04146C" stroke-linejoin="round"/>
<rect x="392.63" y="151.643" width="60.5085" height="26.7275" fill="#EFF2FF" stroke="#04146C"/>
<path d="M257.053 215.037H359.567" stroke="#04146C" stroke-linejoin="round"/>
<path d="M257.053 233.12H359.567" stroke="#04146C" stroke-linejoin="round"/>
<path d="M257.053 251.203H359.567" stroke="#04146C" stroke-linejoin="round"/>
<rect x="392.63" y="226.387" width="60.5085" height="26.7275" fill="#EFF2FF" stroke="#04146C"/>
<path d="M206.399 201.173L183.786 215.268L183.786 187.079L206.399 201.173Z" fill="#0A2FF1"/>
<rect x="0.164551" y="224.681" width="138.52" height="27.8788" fill="#3FFFF3"/>
<rect x="392" y="337" width="107" height="13" fill="#3FFFF3"/>
<path d="M78.7212 176.459H35.5725C30.6711 176.459 26.6978 180.433 26.6978 185.334V228.457C26.6978 233.359 30.6711 237.332 35.5725 237.332H78.7212C83.6225 237.332 87.5959 233.359 87.5959 228.457V185.334C87.5959 180.433 83.6225 176.459 78.7212 176.459Z" fill="#3957F1"/>
<path d="M79.548 194.534C79.548 188.439 75.7059 184.493 69.6666 184.434C61.3009 184.348 52.9391 184.348 44.5812 184.434C38.7064 184.504 34.8408 188.415 34.7468 194.311C34.6881 198.481 34.7468 202.662 34.7468 206.831C34.7468 211 34.7468 215.052 34.7468 219.081C34.7468 225.317 38.6007 229.299 44.7692 229.357C53.0409 229.451 61.3126 229.451 69.5843 229.357C75.6354 229.287 79.501 225.317 79.5362 219.292C79.5832 211.04 79.5872 202.787 79.548 194.534ZM75.5414 219.363C75.5414 223.215 73.4265 225.352 69.5726 225.376C61.3009 225.423 53.0292 225.423 44.7574 225.376C40.8801 225.376 38.7887 223.227 38.7652 219.386C38.7652 211.047 38.7652 202.709 38.7652 194.37C38.7652 190.553 40.9153 188.357 44.734 188.322C53.0057 188.275 61.2774 188.275 69.5491 188.322C73.3794 188.322 75.5061 190.541 75.5414 194.346C75.5414 198.516 75.5414 202.685 75.5414 206.855C75.5414 211.024 75.5884 215.193 75.5414 219.363Z" fill="white"/>
<path d="M57.174 195.148C54.8508 195.125 52.5729 195.79 50.6283 197.061C48.6836 198.332 47.1595 200.15 46.2485 202.287C45.3375 204.423 45.0806 206.781 45.5103 209.064C45.9399 211.346 47.0368 213.45 48.6623 215.109C50.2878 216.768 52.3689 217.908 54.6426 218.386C56.9163 218.863 59.2805 218.656 61.4364 217.79C63.5923 216.925 65.4431 215.44 66.7548 213.523C68.0666 211.606 68.7804 209.344 68.8061 207.021C68.8231 205.478 68.5357 203.947 67.9602 202.514C67.3847 201.082 66.5325 199.777 65.4522 198.675C64.3718 197.572 63.0847 196.693 61.6642 196.088C60.2438 195.482 58.718 195.163 57.174 195.148ZM57.0212 214.644C54.9982 214.587 53.0742 213.756 51.6464 212.322C50.2187 210.889 49.3961 208.962 49.3488 206.939C49.3488 204.871 50.1707 202.887 51.6338 201.425C53.0969 199.962 55.0814 199.141 57.1505 199.141C59.2196 199.141 61.204 199.962 62.6672 201.425C64.1303 202.887 64.9522 204.871 64.9522 206.939C64.9002 208.997 64.0474 210.953 62.5751 212.392C61.1029 213.83 59.1272 214.638 57.0682 214.644H57.0212Z" fill="white"/>
<path d="M72.3417 194.876C72.3437 195.226 72.27 195.572 72.1256 195.892C71.9812 196.211 71.7696 196.495 71.5051 196.725C71.2407 196.954 70.9297 197.124 70.5935 197.223C70.2573 197.321 69.9037 197.346 69.5571 197.295C69.1838 197.314 68.8111 197.248 68.4671 197.102C68.123 196.956 67.8167 196.734 67.5711 196.452C67.3256 196.171 67.1473 195.837 67.0496 195.476C66.9519 195.116 66.9375 194.738 67.0074 194.371C67.0204 194.019 67.1048 193.674 67.2553 193.356C67.4059 193.038 67.6195 192.754 67.8832 192.521C68.1469 192.288 68.4552 192.112 68.7894 192.002C69.1236 191.891 69.4767 191.85 69.8273 191.881C70.1958 191.894 70.5576 191.984 70.8891 192.145C71.2205 192.307 71.5143 192.536 71.7514 192.819C71.9885 193.101 72.1635 193.43 72.2652 193.785C72.3669 194.139 72.393 194.511 72.3417 194.876Z" fill="white"/>
<path d="M488.897 268.646C481.145 268.646 473.711 265.568 468.23 260.089C462.748 254.61 459.669 247.179 459.669 239.43C459.669 231.682 462.748 224.251 468.23 218.772C473.711 213.293 481.145 210.215 488.897 210.215C496.648 210.215 504.082 213.293 509.564 218.772C515.045 224.251 518.124 231.682 518.124 239.43C518.124 247.179 515.045 254.61 509.564 260.089C504.082 265.568 496.648 268.646 488.897 268.646Z" fill="#3957F1" stroke="#3957F1" stroke-width="1.14355" stroke-linecap="round" stroke-linejoin="round"/>
<path d="M473.334 249.227C476.254 251.101 479.652 252.096 483.122 252.093C494.971 252.093 501.677 242.081 501.29 233.103C502.528 232.195 503.597 231.078 504.45 229.803C503.285 230.318 502.05 230.656 500.785 230.805C502.117 230.008 503.113 228.753 503.589 227.276C502.338 228.029 500.967 228.563 499.537 228.855C498.575 227.83 497.301 227.15 495.913 226.922C494.526 226.693 493.101 226.929 491.861 227.592C490.621 228.255 489.634 229.308 489.054 230.589C488.474 231.869 488.332 233.305 488.651 234.675C486.113 234.549 483.629 233.891 481.361 232.743C479.094 231.595 477.094 229.982 475.491 228.01C474.674 229.415 474.424 231.078 474.791 232.661C475.158 234.244 476.114 235.627 477.466 236.53C476.453 236.499 475.462 236.229 474.575 235.741C474.563 237.223 475.067 238.664 476.001 239.816C476.935 240.969 478.24 241.761 479.693 242.057C478.756 242.314 477.772 242.349 476.818 242.16C477.224 243.43 478.017 244.541 479.087 245.336C480.157 246.132 481.449 246.573 482.782 246.598C480.103 248.686 476.707 249.631 473.334 249.227Z" fill="white"/>
<rect x="63" y="18" width="18" height="18" fill="#5974FF"/>
<path fill-rule="evenodd" clip-rule="evenodd" d="M440.319 22.6871H433.244L434.977 25.4234H440.319C443.703 25.4234 446.264 27.9401 446.264 30.8276C446.264 33.715 443.703 36.2317 440.319 36.2317H438.013L430.307 22.9153V28.4106L436.418 38.9901H439.61L439.597 38.968H440.319C445.013 38.968 449 35.4205 449 30.8276C449 26.2346 445.013 22.6871 440.319 22.6871ZM421 38.9901L430.303 22.9153V28.4106L424.192 38.9901H421Z" fill="#04146C"/>
</svg>
