<svg width="595" height="394" viewBox="0 0 595 394" fill="none" xmlns="http://www.w3.org/2000/svg">
<path d="M446.204 34.7565L366.008 7.71948L330.619 109.198L410.815 136.235L446.204 34.7565Z" fill="#3FFFF3"/>
<path d="M442.998 28.3112L362.802 1.27417L327.413 102.752L407.609 129.789L442.998 28.3112Z" fill="white" stroke="#0A2FF1" stroke-width="0.574988" stroke-linecap="round" stroke-linejoin="round"/>
<path d="M393 35.8262C390.107 44.0674 381.013 48.489 372.686 45.7001C364.36 42.9112 359.957 33.9687 362.849 25.7275C365.742 17.4863 374.836 13.0648 383.163 15.8537C391.49 18.6426 395.893 27.585 393 35.8262Z" stroke="#0A2FF1" stroke-width="0.287494"/>
<mask id="mask0_231_362" style="mask-type:alpha" maskUnits="userSpaceOnUse" x="361" y="14" width="34" height="33">
<path d="M393.136 35.6728C390.229 43.9546 381.09 48.3974 372.723 45.5951C364.356 42.7927 359.931 33.8069 362.839 25.525C365.746 17.2431 374.884 12.8004 383.251 15.6027C391.618 18.405 396.043 27.3909 393.136 35.6728Z" fill="white" stroke="#0A2FF1" stroke-width="0.132813"/>
</mask>
<g mask="url(#mask0_231_362)">
<path d="M374.246 34.5179C367.431 33.3749 367.732 26.2722 372.073 23.4318C372.073 23.4318 375.397 26.4836 376.848 27.1306C377.613 27.4715 376.178 30.1639 376.214 30.6416L377.781 30.3556C378.386 28.9385 378.685 28.8203 379.198 28.6431C379.676 28.4783 380.532 29.2508 378.947 30.745C377.876 31.7546 377.696 31.165 376.597 35.3026C375.531 39.3164 379.205 40.4407 381.058 40.9409C379.079 42.4929 374.117 45.1907 370.105 43.5666C366.092 41.9424 368.471 38.7141 370.162 37.303C371.125 37.506 373.125 37.7038 373.507 36.6175L374.246 34.5179Z" fill="#04146C"/>
<path d="M377.781 30.3556C378.386 28.9385 378.685 28.8203 379.198 28.6431C379.676 28.4783 380.532 29.2508 378.947 30.745C377.876 31.7546 377.696 31.165 376.597 35.3026C375.531 39.3164 379.205 40.4407 381.058 40.9409C379.079 42.4929 374.117 45.1907 370.105 43.5666C366.092 41.9424 368.471 38.7141 370.162 37.303C371.125 37.506 373.125 37.7038 373.507 36.6175C373.746 35.9386 374.047 35.0836 374.246 34.5179C367.431 33.3749 367.732 26.2722 372.073 23.4318C372.073 23.4318 375.397 26.4836 376.848 27.1306C377.613 27.4715 376.178 30.1639 376.214 30.6416M377.781 30.3556C377.455 30.5495 376.303 31.8228 376.214 30.6416M377.781 30.3556L376.214 30.6416" stroke="#0A2FF1" stroke-width="0.132813"/>
<path d="M374.526 34.5207C367.623 33.3359 367.872 26.2956 372.239 23.5118C372.239 23.5118 376.192 24.3348 377.632 26.4965L379.916 26.7786C380.517 25.378 378.971 28.9047 379.488 28.7328C379.97 28.573 380.842 29.3455 379.251 30.8151C378.175 31.808 378.129 32.2366 377.05 36.331C376.004 40.3028 379.588 40.4307 381.467 40.9407C379.478 42.4646 374.481 45.1023 370.409 43.4616C366.337 41.821 368.718 38.6379 370.417 37.2514C371.392 37.46 373.417 37.6712 373.795 36.5969L374.526 34.5207Z" fill="white"/>
<path d="M377.632 26.4965C376.192 24.3348 372.239 23.5118 372.239 23.5118C367.872 26.2956 367.623 33.3359 374.526 34.5207C374.329 35.0801 374.031 35.9256 373.795 36.5969C373.417 37.6712 371.392 37.46 370.417 37.2514C368.718 38.6379 366.337 41.821 370.409 43.4616C374.481 45.1023 379.478 42.4646 381.467 40.9407C379.588 40.4307 376.004 40.3028 377.05 36.331C378.129 32.2366 378.175 31.808 379.251 30.8151C380.842 29.3455 379.97 28.573 379.488 28.7328C378.971 28.9047 380.517 25.378 379.916 26.7786M377.632 26.4965C379.243 26.6957 379.589 26.9684 379.916 26.7786M377.632 26.4965C377.414 26.3201 377.777 26.714 377.632 26.4965ZM377.632 26.4965L379.916 26.7786" stroke="#0A2FF1" stroke-width="0.0862482"/>
<path d="M376.769 26.3683L376.769 26.3685C377.486 26.5544 378.189 26.7888 378.872 27.0701L378.95 27.1023L378.899 27.1701L378.899 27.1702L378.899 27.1703L378.898 27.1711L378.896 27.1742L378.887 27.1869C378.879 27.1981 378.867 27.2147 378.851 27.2361C378.821 27.279 378.778 27.3412 378.727 27.4181C378.625 27.5722 378.494 27.7846 378.374 28.0192C378.253 28.2541 378.145 28.5088 378.089 28.7475C378.032 28.9877 378.03 29.2018 378.109 29.3633C378.289 29.7308 378.371 30.0177 378.391 30.2615C378.411 30.5053 378.368 30.7017 378.303 30.8871M376.769 26.3683L378.239 30.8685M376.769 26.3683L376.766 26.3676C376.638 26.3423 376.456 26.3125 376.234 26.2763C376.122 26.2581 376 26.2381 375.87 26.2163C375.481 26.151 375.016 26.0682 374.522 25.96C373.534 25.7433 372.435 25.426 371.599 24.9477C370.768 24.473 369.886 23.4054 369.366 22.3037C369.106 21.7536 368.938 21.1998 368.911 20.7122C368.884 20.2245 368.998 19.8112 369.288 19.5286C369.592 19.2327 369.839 19.1024 370.053 19.0685C370.266 19.0349 370.459 19.0947 370.66 19.2048C370.79 19.2764 370.918 19.3652 371.055 19.4605C371.133 19.5148 371.214 19.5713 371.301 19.6278C371.534 19.7806 371.796 19.9265 372.111 20.0041C372.422 20.0811 372.778 20.1017 373.161 20.1004C373.408 20.0996 373.67 20.0895 373.942 20.0791C374.091 20.0735 374.243 20.0677 374.396 20.0632C375.268 20.0379 376.218 20.0552 377.161 20.37C378.113 20.6875 378.853 21.0284 379.484 21.5104C380.114 21.9922 380.638 22.6176 381.152 23.5089C381.663 24.3962 381.957 25.4471 382.019 26.4666C382.08 27.4862 381.909 28.4692 381.495 29.2235M376.769 26.3683L381.553 29.2555M378.303 30.8871C378.303 30.8879 378.303 30.8887 378.302 30.8895L378.239 30.8685M378.303 30.8871C378.303 30.8863 378.304 30.8854 378.304 30.8846L378.239 30.8685M378.303 30.8871C378.196 31.2911 378.118 31.702 378.071 32.1165L378.07 32.1211L378.07 32.1211L377.923 32.912M378.239 30.8685C378.13 31.2765 378.052 31.6914 378.004 32.11L377.842 32.9847L377.923 32.912M377.923 32.912L377.903 33.0181L378.944 32.0867C380.303 31.2423 380.969 30.2341 381.553 29.2555M377.923 32.912L378.9 32.0379L378.909 32.03L378.91 32.0309C380.253 31.1955 380.913 30.199 381.495 29.2235M378.846 27.1312L378.819 27.1923C378.815 27.1903 378.81 27.1884 378.805 27.1865C378.831 27.1508 378.846 27.1312 378.846 27.1312ZM378.846 27.1312L378.792 27.0923L378.792 27.0924L378.792 27.0926L378.791 27.0935L378.789 27.097L378.783 27.1054C378.804 27.1139 378.825 27.1225 378.846 27.1312ZM381.495 29.2235C381.495 29.2238 381.495 29.2242 381.494 29.2245L381.553 29.2555M381.495 29.2235C381.495 29.2231 381.495 29.2228 381.496 29.2224L381.553 29.2555" fill="#3957F1" stroke="#0A2FF1" stroke-width="0.132813"/>
<mask id="path-10-inside-1_231_362" fill="white">
<path fill-rule="evenodd" clip-rule="evenodd" d="M378.08 32.1522C378.446 31.7882 378.766 31.379 379.032 30.9332C379.876 29.396 379.083 27.3195 379.083 27.3195L377.966 25.0058C377.966 25.0058 376.572 22.6197 374.662 21.9822C373.537 21.6068 372.405 21.6502 371.417 21.6881C370.726 21.7146 370.105 21.7384 369.605 21.615C369.375 21.5583 369.173 21.4636 368.989 21.3555C369.335 22.7559 370.511 24.3951 371.612 25.0242C373.022 25.8309 375.161 26.1798 376.272 26.3612C376.493 26.3972 376.673 26.4267 376.799 26.4517C377.514 26.6369 378.213 26.8705 378.894 27.1507C378.894 27.1507 377.742 28.6872 378.097 29.4131C378.452 30.139 378.414 30.529 378.287 30.8894C378.178 31.2974 378.1 31.7125 378.052 32.1312L378.08 32.1522Z"/>
</mask>
<path fill-rule="evenodd" clip-rule="evenodd" d="M378.08 32.1522C378.446 31.7882 378.766 31.379 379.032 30.9332C379.876 29.396 379.083 27.3195 379.083 27.3195L377.966 25.0058C377.966 25.0058 376.572 22.6197 374.662 21.9822C373.537 21.6068 372.405 21.6502 371.417 21.6881C370.726 21.7146 370.105 21.7384 369.605 21.615C369.375 21.5583 369.173 21.4636 368.989 21.3555C369.335 22.7559 370.511 24.3951 371.612 25.0242C373.022 25.8309 375.161 26.1798 376.272 26.3612C376.493 26.3972 376.673 26.4267 376.799 26.4517C377.514 26.6369 378.213 26.8705 378.894 27.1507C378.894 27.1507 377.742 28.6872 378.097 29.4131C378.452 30.139 378.414 30.529 378.287 30.8894C378.178 31.2974 378.1 31.7125 378.052 32.1312L378.08 32.1522Z" fill="#04146C"/>
<path d="M378.08 32.1522L377.998 32.2575L378.091 32.3278L378.174 32.2448L378.08 32.1522ZM379.032 30.9332L379.147 30.9993L379.149 30.9951L379.032 30.9332ZM379.083 27.3195L379.209 27.2712L379.204 27.2612L379.083 27.3195ZM377.966 25.0058L378.087 24.9474L378.082 24.9385L377.966 25.0058ZM374.662 21.9822L374.706 21.8569L374.662 21.9822ZM371.417 21.6881L371.42 21.8202L371.42 21.8202L371.417 21.6881ZM369.605 21.615L369.571 21.7432L369.605 21.615ZM368.989 21.3555L369.058 21.2415L368.783 21.0804L368.859 21.3885L368.989 21.3555ZM371.612 25.0242L371.544 25.1388L371.612 25.0242ZM376.272 26.3612L376.249 26.4916L376.272 26.3612ZM376.799 26.4517L376.835 26.3237L376.827 26.3222L376.799 26.4517ZM378.894 27.1507L379.001 27.2286L379.103 27.0928L378.947 27.0286L378.894 27.1507ZM378.287 30.8894L378.161 30.8472L378.158 30.8572L378.287 30.8894ZM378.052 32.1312L377.92 32.1182L377.911 32.1918L377.97 32.2365L378.052 32.1312ZM378.174 32.2448C378.548 31.8728 378.875 31.4548 379.147 30.9993L378.917 30.8671C378.657 31.3032 378.344 31.7035 377.986 32.0597L378.174 32.2448ZM379.149 30.9951C379.591 30.1904 379.601 29.2538 379.506 28.5313C379.459 28.1682 379.385 27.8544 379.323 27.6312C379.291 27.5195 379.263 27.4303 379.243 27.3687C379.232 27.3378 379.224 27.3139 379.218 27.2975C379.215 27.2893 379.213 27.2829 379.211 27.2785C379.21 27.2764 379.21 27.2747 379.209 27.2735C379.209 27.2729 379.209 27.2724 379.209 27.272C379.208 27.2719 379.208 27.2717 379.208 27.2716C379.208 27.2716 379.208 27.2715 379.208 27.2715C379.208 27.2714 379.208 27.2714 379.083 27.3195C378.958 27.3676 378.958 27.3676 378.958 27.3675C378.958 27.3675 378.958 27.3675 378.958 27.3675C378.958 27.3675 378.958 27.3676 378.958 27.3677C378.958 27.3678 378.959 27.3681 378.959 27.3685C378.959 27.3693 378.96 27.3706 378.96 27.3724C378.962 27.376 378.964 27.3815 378.966 27.3889C378.971 27.4036 378.979 27.4258 378.989 27.4548C379.008 27.5127 379.035 27.5977 379.065 27.7047C379.125 27.9189 379.196 28.2203 379.242 28.5685C379.333 29.2685 379.317 30.1388 378.915 30.8713L379.149 30.9951ZM379.204 27.2612L378.087 24.9476L377.846 25.0641L378.963 27.3777L379.204 27.2612ZM377.966 25.0058C378.082 24.9385 378.082 24.9385 378.082 24.9385C378.082 24.9384 378.082 24.9384 378.082 24.9383C378.082 24.9382 378.082 24.9381 378.082 24.9379C378.081 24.9375 378.081 24.937 378.081 24.9364C378.08 24.9351 378.079 24.9332 378.077 24.9308C378.074 24.926 378.07 24.919 378.065 24.9098C378.054 24.8916 378.037 24.865 378.016 24.8311C377.973 24.7633 377.911 24.6661 377.829 24.5477C377.667 24.311 377.43 23.9888 377.132 23.6462C376.54 22.9643 375.695 22.1869 374.706 21.8569L374.618 22.1075C375.539 22.4149 376.346 23.1493 376.929 23.8199C377.218 24.1535 377.449 24.4677 377.608 24.6983C377.687 24.8135 377.748 24.9078 377.789 24.973C377.809 25.0055 377.825 25.0308 377.835 25.0479C377.84 25.0564 377.844 25.0628 377.847 25.0671C377.848 25.0692 377.849 25.0708 377.85 25.0718C377.85 25.0723 377.85 25.0726 377.85 25.0728C377.85 25.073 377.85 25.073 377.85 25.0731C377.85 25.0731 377.85 25.0731 377.85 25.0731C377.85 25.0731 377.85 25.0731 377.966 25.0058ZM374.706 21.8569C373.555 21.4728 372.399 21.5183 371.413 21.5561L371.42 21.8202C372.411 21.7822 373.519 21.7409 374.618 22.1075L374.706 21.8569ZM371.413 21.5561C370.716 21.5828 370.117 21.6046 369.639 21.4868L369.571 21.7432C370.093 21.8721 370.736 21.8464 371.42 21.8202L371.413 21.5561ZM369.639 21.4868C369.425 21.434 369.235 21.3455 369.058 21.2415L368.92 21.4694C369.112 21.5817 369.325 21.6826 369.571 21.7432L369.639 21.4868ZM368.859 21.3885C369.037 22.1083 369.426 22.883 369.908 23.5564C370.39 24.2289 370.972 24.8117 371.544 25.1388L371.679 24.9096C371.151 24.6075 370.595 24.0562 370.127 23.4017C369.659 22.7481 369.287 22.0031 369.119 21.3225L368.859 21.3885ZM371.544 25.1388C372.979 25.9597 375.143 26.3112 376.249 26.4916L376.296 26.2308C375.178 26.0484 373.066 25.7021 371.679 24.9096L371.544 25.1388ZM376.249 26.4916C376.471 26.5278 376.648 26.5568 376.772 26.5813L376.827 26.3222C376.699 26.2965 376.515 26.2667 376.296 26.2308L376.249 26.4916ZM376.764 26.5796C377.472 26.7633 378.166 26.9949 378.841 27.2728L378.947 27.0286C378.26 26.746 377.555 26.5106 376.835 26.3239L376.764 26.5796ZM378.894 27.1507C378.787 27.0728 378.787 27.0729 378.787 27.0729C378.787 27.0729 378.787 27.0729 378.787 27.073C378.787 27.0731 378.787 27.0731 378.787 27.0733C378.787 27.0735 378.786 27.0738 378.786 27.0743C378.786 27.0751 378.785 27.0763 378.783 27.0779C378.781 27.0811 378.778 27.0857 378.773 27.0916C378.765 27.1035 378.752 27.1209 378.736 27.1431C378.705 27.1876 378.66 27.2518 378.608 27.3309C378.504 27.4889 378.368 27.708 378.243 27.9511C378.119 28.1933 378.003 28.4641 377.942 28.7249C377.881 28.9827 377.868 29.2507 377.977 29.4719L378.217 29.3542C378.148 29.2126 378.146 29.0163 378.202 28.7818C378.256 28.5503 378.362 28.301 378.481 28.0683C378.6 27.8365 378.73 27.6261 378.831 27.4733C378.881 27.3971 378.924 27.3355 378.954 27.2931C378.969 27.272 378.981 27.2556 378.989 27.2447C378.993 27.2392 378.996 27.235 378.998 27.2323C378.999 27.231 379 27.23 379 27.2294C379 27.229 379.001 27.2288 379.001 27.2287C379.001 27.2286 379.001 27.2286 379.001 27.2286C379.001 27.2285 379.001 27.2285 379.001 27.2285C379.001 27.2286 379.001 27.2286 378.894 27.1507ZM377.977 29.4719C378.15 29.8255 378.223 30.0885 378.24 30.3007C378.257 30.5106 378.221 30.6792 378.161 30.8473L378.413 30.9314C378.481 30.7392 378.527 30.5326 378.506 30.2759C378.485 30.0215 378.399 29.7265 378.217 29.3542L377.977 29.4719ZM378.158 30.8572C378.048 31.2715 377.968 31.693 377.92 32.1182L378.185 32.1443C378.232 31.732 378.309 31.3234 378.416 30.9215L378.158 30.8572ZM377.97 32.2365L377.998 32.2575L378.162 32.0469L378.134 32.0259L377.97 32.2365Z" fill="#0A2FF1" mask="url(#path-10-inside-1_231_362)"/>
<path d="M382.156 42.9458C382.543 39.996 380.344 39.2509 377.806 39.0521C377.806 39.0521 375.47 39.2423 372.262 37.2023C368.278 34.6692 367.214 38.1427 366.872 38.6615L363.096 49.3767L362.184 51.966L365.553 53.6965C367.96 54.4997 367.284 54.2324 371.385 55.8855C375.486 57.5386 378.542 57.5299 379.989 57.3797C380.745 52.6894 381.842 45.3343 382.156 42.9458Z" fill="#8A9AF1" stroke="#0A2FF1" stroke-width="0.132813"/>
<path d="M368.639 42.9626C367.027 48.9162 366.093 51.1267 365.207 53.6607L364.584 53.3706C366.391 49.6185 366.288 49.2227 368.639 42.9626Z" fill="#0A2FF1" stroke="#0A2FF1" stroke-width="0.132813"/>
<path d="M376.501 55.8227L370.043 55.2137L375.804 54.7569L376.932 49.1834L378.316 47.6223L376.501 55.8227Z" fill="#0A2FF1" stroke="#0A2FF1" stroke-width="0.132813"/>
<path d="M373.587 36.7798C371.28 37.7884 368.865 40.197 372.717 39.4814L373.587 36.7798Z" fill="#3957F1" stroke="#0A2FF1" stroke-width="0.132813"/>
<path d="M376.942 37.6754C377.66 39.8957 378.352 43.3009 375.762 40.4346L376.942 37.6754Z" fill="#3957F1" stroke="#0A2FF1" stroke-width="0.132813"/>
<path d="M374.182 41.1163C372.942 40.8891 372.087 40.8957 373.703 36.9793L376.836 37.6767C376.299 38.7662 375.769 41.4073 374.182 41.1163Z" fill="white"/>
<path d="M380.243 30.1999L380.244 30.2C380.341 30.2288 380.467 30.2045 380.622 30.1192C380.775 30.0345 380.947 29.8954 381.129 29.7137C381.493 29.3506 381.889 28.8273 382.252 28.2626C382.614 27.6983 382.942 27.0954 383.17 26.5748C383.284 26.3145 383.373 26.0758 383.429 25.8736C383.486 25.6695 383.507 25.5095 383.492 25.4031C383.428 24.9453 383.118 24.5635 382.814 24.2925C382.663 24.1578 382.516 24.0524 382.407 23.9808C382.352 23.945 382.307 23.9177 382.276 23.8994C382.26 23.8902 382.248 23.8834 382.24 23.8788L382.231 23.8738L382.229 23.8726L382.228 23.8723L382.228 23.8723L382.228 23.8723L382.228 23.8723L382.2 23.8572L382.194 23.8256L382.194 23.8256L382.194 23.8256L382.194 23.8253L382.194 23.8241L382.193 23.8189L382.189 23.7976C382.185 23.7787 382.18 23.7508 382.172 23.7148C382.155 23.6428 382.129 23.5387 382.091 23.4114C382.015 23.1567 381.889 22.8097 381.693 22.4406C381.3 21.702 380.628 20.8804 379.504 20.5272C378.365 20.1693 377.099 20.0219 376.116 19.9643C375.625 19.9355 375.205 19.9291 374.909 19.9299C374.76 19.9304 374.643 19.9326 374.562 19.9347C374.522 19.9358 374.491 19.9368 374.47 19.9375L374.447 19.9385L374.441 19.9387L374.44 19.9388L374.439 19.9388L374.439 19.9388L374.437 19.8728L374.371 19.8841L374.371 19.884L374.371 19.884L374.371 19.8836L374.371 19.882L374.369 19.8753L374.365 19.8489C374.36 19.826 374.353 19.7933 374.344 19.754C374.326 19.6751 374.297 19.5711 374.258 19.4688C374.218 19.3655 374.168 19.2684 374.109 19.2002C374.051 19.1321 373.991 19.1009 373.926 19.1065C373.897 19.1091 373.86 19.1243 373.815 19.1568C373.772 19.189 373.725 19.235 373.677 19.2922C373.582 19.4065 373.486 19.5579 373.401 19.7111C373.316 19.8638 373.242 20.0158 373.19 20.1298C373.164 20.1868 373.143 20.2341 373.129 20.2671L373.113 20.3054L373.108 20.3153L373.107 20.3178L373.107 20.3184L373.107 20.3185L373.107 20.3186L373.06 20.4329L372.99 20.3323L372.99 20.3323L372.99 20.3322L372.99 20.3316L372.988 20.3292L372.981 20.3197C372.975 20.3113 372.966 20.2989 372.955 20.2833C372.932 20.2521 372.899 20.2078 372.857 20.1559C372.775 20.0518 372.662 19.9182 372.538 19.7978C372.414 19.6762 372.284 19.5731 372.167 19.5245C372.109 19.5003 372.059 19.4915 372.017 19.4966C371.977 19.5014 371.94 19.5194 371.905 19.5591C371.733 19.7555 371.378 20.3721 371.285 21.0949C371.193 21.8128 371.358 22.6295 372.214 23.2466C373.075 23.8672 374.241 23.9644 375.202 23.9023C375.682 23.8714 376.106 23.8011 376.411 23.7385C376.564 23.7072 376.686 23.6779 376.77 23.6565C376.812 23.6458 376.845 23.637 376.867 23.6309L376.891 23.624L376.898 23.6222L376.899 23.6218L376.899 23.6217L376.899 23.6217L376.994 23.5937L376.984 23.6907C376.883 24.704 377.442 25.5017 378.038 26.0513C378.335 26.3255 378.639 26.5356 378.869 26.6772C378.984 26.748 379.08 26.8015 379.147 26.8373C379.181 26.8551 379.207 26.8686 379.225 26.8775L379.245 26.8874L379.25 26.8898L379.252 26.8904L379.252 26.8905L379.252 26.8905L379.252 26.8905L379.298 26.912L379.288 26.9616L379.288 26.9616L379.288 26.9619L379.288 26.9634L379.287 26.9692L379.283 26.9927C379.28 27.0134 379.275 27.044 379.269 27.0832C379.257 27.1617 379.243 27.2744 379.23 27.4111C379.204 27.6849 379.185 28.0536 379.214 28.4352C379.242 28.8174 379.319 29.2083 379.479 29.5291C379.639 29.8484 379.881 30.0955 380.243 30.1999ZM373.076 20.2223C373.082 20.2304 373.087 20.2371 373.091 20.2425L373.098 20.2527L373.1 20.2554L373.1 20.2561L373.1 20.2563L373.1 20.2564L373.045 20.2943L372.984 20.2701L372.984 20.27L372.984 20.2698L372.984 20.2691L372.985 20.2664L372.989 20.2559L373 20.2316C372.822 19.9913 372.166 19.1612 371.855 19.5161C371.493 19.9291 370.415 22.0317 372.174 23.3002C373.776 24.4551 376.393 23.826 376.849 23.704C376.85 23.6958 376.851 23.6875 376.851 23.6793L376.918 23.685L376.936 23.7483L376.936 23.7483L376.936 23.7485L376.934 23.749L376.927 23.7509L376.912 23.7552C376.765 25.7975 379.223 26.9503 379.223 26.9503C379.223 26.9503 378.687 29.8208 380.224 30.2634L373.076 20.2223Z" fill="#3957F1" stroke="#0A2FF1" stroke-width="0.132813"/>
<path d="M378.718 22.5721C378.242 22.3473 377.726 22.2159 377.198 22.1849C377.249 22.1926 377.301 22.1999 377.353 22.2073C377.548 22.235 377.747 22.2633 377.938 22.3114L377.938 22.3113L377.941 22.3122L378.328 22.4288L378.328 22.4287L378.332 22.4301C378.459 22.4774 378.583 22.5336 378.703 22.5983C379.127 22.8016 379.482 23.1179 379.731 23.5101C379.494 23.1077 379.142 22.7813 378.718 22.5721Z" fill="white" stroke="#0A2FF1" stroke-width="0.132813"/>
<path d="M372.374 27.2709L372.433 27.3014C372.228 27.6813 372.196 28.127 372.343 28.542C372.491 28.9572 372.807 29.3082 373.225 29.5174C373.359 29.5833 373.501 29.6335 373.648 29.6669L373.648 29.6669C373.971 29.7417 374.307 29.7309 374.617 29.6363C374.927 29.5417 375.199 29.3673 375.401 29.1335C375.604 28.8997 375.73 28.6156 375.765 28.3134C375.8 28.0111 375.743 27.702 375.599 27.4213C375.456 27.1406 375.232 26.8997 374.952 26.7265C374.672 26.5533 374.348 26.455 374.018 26.443C373.687 26.4309 373.364 26.5054 373.084 26.6575C372.804 26.8095 372.578 27.0327 372.433 27.3015L372.374 27.2709ZM372.374 27.2709C372.16 27.6677 372.127 28.1328 372.28 28.5646C372.434 28.9965 372.762 29.3603 373.194 29.5766L373.632 29.7313C373.966 29.8086 374.314 29.7976 374.636 29.6994C374.958 29.6013 375.24 29.42 375.452 29.1761C375.663 28.9323 375.794 28.6357 375.831 28.3201C375.868 28.0045 375.808 27.6826 375.659 27.3909C375.51 27.0993 375.277 26.8496 374.988 26.6703C374.698 26.4911 374.363 26.3894 374.021 26.3769C373.679 26.3644 373.343 26.4416 373.052 26.5996C372.761 26.7577 372.526 26.9902 372.374 27.2709ZM374.36 26.5836L374.36 26.5837C374.695 26.6615 374.999 26.834 375.23 27.0777C375.461 27.3213 375.608 27.6243 375.649 27.9448C375.69 28.2654 375.623 28.5869 375.457 28.864C375.291 29.141 375.035 29.3591 374.725 29.4882C374.415 29.6174 374.067 29.6515 373.73 29.5865C373.392 29.5215 373.081 29.3606 372.84 29.1258C372.598 28.891 372.438 28.5936 372.383 28.2746C372.328 27.9556 372.381 27.6313 372.534 27.3476L372.534 27.3474C372.699 27.0453 372.968 26.807 373.299 26.6692C373.629 26.5314 374.002 26.5017 374.36 26.5836Z" fill="#3957F1" stroke="#0A2FF1" stroke-width="0.132813"/>
<path d="M369.664 28.2435L369.663 28.2433L369.664 28.2435ZM369.664 28.2435C370.305 28.3933 371.046 27.921 371.344 27.1116L371.344 27.1116M369.664 28.2435L371.344 27.1116M371.344 27.1116L371.345 27.1104M371.344 27.1116L371.345 27.1104M371.345 27.1104C371.494 26.7301 371.509 26.3112 371.388 25.9126L371.388 25.9126M371.345 27.1104L371.388 25.9126M371.388 25.9126L371.387 25.9086M371.388 25.9126L371.387 25.9086M371.387 25.9086C371.348 25.7408 371.263 25.5831 371.139 25.451C371.016 25.319 370.86 25.2173 370.684 25.156C370.509 25.0948 370.321 25.0763 370.14 25.102C369.958 25.1276 369.789 25.1966 369.649 25.3017L369.649 25.3018M371.387 25.9086L369.649 25.3018M369.649 25.3018L369.646 25.3039M369.649 25.3018L369.646 25.3039M369.646 25.3039C369.292 25.5379 369.031 25.8709 368.897 26.2562L368.896 26.2574M369.646 25.3039L368.896 26.2574M368.896 26.2574C368.579 27.1135 368.892 27.9813 369.554 28.2128L368.896 26.2574ZM369.648 28.3078C370.332 28.4678 371.101 27.9637 371.407 27.1336L369.531 28.2753C369.569 28.2881 369.608 28.299 369.648 28.3078ZM370.552 25.2142L370.552 25.2136L370.561 25.2164L370.651 25.2464L370.651 25.2463L370.654 25.2477C370.808 25.3093 370.946 25.4039 371.055 25.524C371.164 25.6437 371.242 25.7854 371.282 25.9376C371.396 26.3166 371.38 26.7158 371.238 27.079C371.092 27.4725 370.838 27.7879 370.542 27.9789C370.245 28.17 369.903 28.2383 369.587 28.1281C369.271 28.0178 369.051 27.7525 368.947 27.4214C368.843 27.0906 368.853 26.6904 368.997 26.2983C369.124 25.9295 369.373 25.6115 369.708 25.3885C369.827 25.3053 369.963 25.247 370.108 25.2171C370.253 25.1871 370.405 25.1861 370.552 25.2142Z" fill="#3957F1" stroke="#0A2FF1" stroke-width="0.132813"/>
<path d="M372.109 27.1062C372.235 27.2038 372.328 27.3185 372.376 27.383L372.468 27.3334C372.373 27.2024 372.223 27.0483 372.04 26.9456C371.848 26.8381 371.624 26.7888 371.386 26.8761L371.436 26.9667C371.704 26.8692 371.942 26.977 372.109 27.1062Z" fill="#3957F1" stroke="#0A2FF1" stroke-width="0.132813"/>
<path d="M380.005 30.5295C379.976 30.3913 379.924 30.1812 379.845 29.9787C379.799 29.8614 379.743 29.7449 379.678 29.6458C379.613 29.5473 379.534 29.4615 379.44 29.4117L380.005 30.5295ZM380.005 30.5295L380.116 30.5174C380.096 30.4121 380.051 30.2136 379.974 30.0046C379.87 29.7259 379.714 29.4473 379.493 29.3301C379.385 29.2736 379.105 29.1793 378.736 29.0676C378.369 28.9567 377.921 28.8309 377.482 28.7113C376.721 28.5039 375.99 28.3157 375.767 28.2583L375.743 28.3505C376.215 28.4715 377.023 28.6827 377.767 28.8884C378.156 28.996 378.527 29.1023 378.824 29.1935C379.118 29.2837 379.345 29.3612 379.44 29.4117L380.005 30.5295Z" fill="#3957F1" stroke="#0A2FF1" stroke-width="0.132813"/>
</g>
<rect x="0.0888802" y="0.181653" width="7.4397" height="7.3372" transform="matrix(0.947597 0.319469 -0.329286 0.94423 355.073 52.6517)" fill="white" stroke="#0A2FF1" stroke-width="0.287494"/>
<path d="M395.754 45.3342L422.254 54.2682" stroke="#0A2FF1" stroke-width="0.574988" stroke-linecap="round" stroke-linejoin="round"/>
<path d="M398.146 38.4773L424.646 47.4113" stroke="#0A2FF1" stroke-width="0.574988" stroke-linecap="round" stroke-linejoin="round"/>
<path d="M400.538 31.6211L427.037 40.5551" stroke="#0A2FF1" stroke-width="0.574988" stroke-linecap="round" stroke-linejoin="round"/>
<path d="M361.993 80.6943L407.67 96.0937" stroke="#0A2FF1" stroke-width="0.287494" stroke-linecap="round" stroke-linejoin="round"/>
<path d="M353.405 100.811L399.082 116.211" stroke="#0A2FF1" stroke-width="0.287494" stroke-linecap="round" stroke-linejoin="round"/>
<path d="M365.22 71.438L410.897 86.8373" stroke="#0A2FF1" stroke-width="0.287494" stroke-linecap="round" stroke-linejoin="round"/>
<path d="M356.631 91.5549L402.308 106.954" stroke="#0A2FF1" stroke-width="0.287494" stroke-linecap="round" stroke-linejoin="round"/>
<path d="M368.568 61.8384L414.245 77.2377" stroke="#0A2FF1" stroke-width="0.287494" stroke-linecap="round" stroke-linejoin="round"/>
<path d="M125.717 142.959C129.147 140.706 133.181 139.503 137.307 139.503C142.84 139.509 148.142 141.672 152.052 145.516C155.961 149.359 158.158 154.569 158.164 160.001C158.164 164.052 156.942 168.014 154.651 171.384C152.36 174.755 149.104 177.383 145.292 178.936C141.48 180.488 137.285 180.894 133.237 180.103C129.19 179.311 125.473 177.358 122.557 174.491C119.641 171.623 117.656 167.972 116.852 163.997C116.048 160.023 116.461 155.903 118.038 152.159C119.616 148.415 122.288 145.213 125.717 142.959Z" fill="#3957F1" stroke="#3957F1" stroke-width="1.00585"/>
<mask id="path-34-inside-2_231_362" fill="white">
<path fill-rule="evenodd" clip-rule="evenodd" d="M142.741 150.736H135.584L137.337 153.458H142.741C146.165 153.458 148.755 155.961 148.755 158.833C148.755 161.705 146.165 164.208 142.741 164.208H140.409L132.612 150.963V156.429L138.794 166.952H142.024L142.011 166.93H142.741C147.489 166.93 151.523 163.401 151.523 158.833C151.523 154.265 147.489 150.736 142.741 150.736ZM123.196 166.952L132.608 150.963V156.429L126.426 166.952H123.196Z"/>
</mask>
<path fill-rule="evenodd" clip-rule="evenodd" d="M142.741 150.736H135.584L137.337 153.458H142.741C146.165 153.458 148.755 155.961 148.755 158.833C148.755 161.705 146.165 164.208 142.741 164.208H140.409L132.612 150.963V156.429L138.794 166.952H142.024L142.011 166.93H142.741C147.489 166.93 151.523 163.401 151.523 158.833C151.523 154.265 147.489 150.736 142.741 150.736ZM123.196 166.952L132.608 150.963V156.429L126.426 166.952H123.196Z" fill="white"/>
<path d="M135.584 150.736V149.736H133.75L134.743 151.278L135.584 150.736ZM137.337 153.458L136.496 153.999L136.791 154.458H137.337V153.458ZM140.409 164.208L139.547 164.715L139.837 165.208H140.409V164.208ZM132.612 150.963L133.474 150.456L131.612 147.293V150.963H132.612ZM132.612 156.429H131.612V156.701L131.75 156.936L132.612 156.429ZM138.794 166.952L137.932 167.458L138.222 167.952H138.794V166.952ZM142.024 166.952V167.952H143.773L142.885 166.444L142.024 166.952ZM142.011 166.93V165.93H140.262L141.149 167.437L142.011 166.93ZM132.608 150.963H133.608V147.293L131.746 150.456L132.608 150.963ZM123.196 166.952L122.335 166.444L121.447 167.952H123.196V166.952ZM132.608 156.429L133.47 156.936L133.608 156.701V156.429H132.608ZM126.426 166.952V167.952H126.998L127.288 167.458L126.426 166.952ZM135.584 151.736H142.741V149.736H135.584V151.736ZM138.177 152.916L136.424 150.195L134.743 151.278L136.496 153.999L138.177 152.916ZM142.741 152.458H137.337V154.458H142.741V152.458ZM149.755 158.833C149.755 155.328 146.632 152.458 142.741 152.458V154.458C145.697 154.458 147.755 156.595 147.755 158.833H149.755ZM142.741 165.208C146.632 165.208 149.755 162.339 149.755 158.833H147.755C147.755 161.071 145.697 163.208 142.741 163.208V165.208ZM140.409 165.208H142.741V163.208H140.409V165.208ZM131.75 151.47L139.547 164.715L141.27 163.701L133.474 150.456L131.75 151.47ZM133.612 156.429V150.963H131.612V156.429H133.612ZM139.656 166.445L133.474 155.922L131.75 156.936L137.932 167.458L139.656 166.445ZM142.024 165.952H138.794V167.952H142.024V165.952ZM141.149 167.437L141.162 167.459L142.885 166.444L142.873 166.422L141.149 167.437ZM142.741 165.93H142.011V167.93H142.741V165.93ZM150.523 158.833C150.523 162.759 147.031 165.93 142.741 165.93V167.93C147.947 167.93 152.523 164.043 152.523 158.833H150.523ZM142.741 151.736C147.031 151.736 150.523 154.907 150.523 158.833H152.523C152.523 153.623 147.947 149.736 142.741 149.736V151.736ZM131.746 150.456L122.335 166.444L124.058 167.459L133.47 151.47L131.746 150.456ZM133.608 156.429V150.963H131.608V156.429H133.608ZM127.288 167.458L133.47 156.936L131.746 155.922L125.564 166.445L127.288 167.458ZM123.196 167.952H126.426V165.952H123.196V167.952Z" fill="white" mask="url(#path-34-inside-2_231_362)"/>
<path d="M404.534 141.491C392.256 122.085 384.071 133.405 381.513 141.491V159.894L423.292 181.642L441.197 225.976C432.103 245.215 412.037 285.533 404.534 292.894C395.155 302.095 374.692 297.913 363.608 271.982C352.524 246.051 353.217 205.836 354.922 189.107C355.746 181.026 362.278 141.491 373.68 120.516C380.501 107.968 388.175 99.7157 399.419 96.3212C417.731 90.7925 467.469 87.0563 476.155 128.944C487.733 184.779 491.89 176.623 509.248 194.962C526.606 213.301 515.057 240.969 488.785 248.497C444.107 261.299 441.197 182.478 450.576 176.623C459.955 170.768 457.397 135.636 441.197 154.038C424.997 172.441 419.882 165.749 404.534 141.491Z" fill="#0A2FF1"/>
<path d="M369.637 187.598C362.597 159.364 372.814 126.15 391.065 129.384L398.138 150.681L447.737 195.855L444.216 247.332L400.474 272.075C396.548 271.261 407.276 293.493 394.926 289.467C379.488 284.434 365.254 261.482 372.814 241.563C380.945 220.14 378.438 222.891 369.637 187.598Z" fill="#15163D"/>
<path d="M431.782 203.808C371.975 223.883 370.999 157.764 384.764 133.987C398.406 117.258 408.118 146.566 421.427 154.063C434.094 161.198 438.603 153.619 444.571 147.764C450.54 141.909 459.066 147.764 459.066 158.638C459.066 169.512 447.982 172.022 450.54 203.808C452.586 229.237 482.087 233.921 496.581 233.085C486.35 248.699 457.702 279.426 424.961 277.418C392.22 275.411 401.087 247.026 409.613 233.085C417.003 232.248 431.782 229.237 431.782 223.883L431.782 203.808Z" fill="#F8F8F8"/>
<path d="M478.553 232.786C441.038 277.621 419.154 251.467 412.901 232.786C399.941 227.432 394.428 235.016 393.291 239.478L387.322 327.308L387.322 361.603L407.144 362L412.901 361.603C415.459 360.767 428.931 359.596 462.354 361.603C495.777 363.611 524.027 355.19 533.974 350.729C530.848 320.337 522.549 255.538 514.364 239.478C506.179 223.417 487.08 228.325 478.553 232.786Z" fill="#8A9AF1"/>
<path d="M418.87 332.145V360.585L412.961 361.429L407.144 362C418.228 359.417 414.098 343.298 412.961 332.145C390.272 308.885 407.501 287.254 412.901 276.937C401.305 305.712 406.933 320.434 418.87 332.145Z" fill="#0A2FF1"/>
<path d="M502.427 338.836L454.68 349.711L494.754 332.981L488.785 291.157L494.754 276.937L502.427 338.836Z" fill="#0A2FF1"/>
<path d="M234.767 197.659C288.633 205.626 305.047 154.954 280.122 124.78C280.122 124.78 247.295 138.44 234.767 139.584C228.165 140.186 231.798 162.495 230.274 165.772L219.331 160.079C218.537 148.688 216.618 147.155 213.252 144.703C210.121 142.422 201.702 145.846 209.605 160.079C214.945 169.696 217.84 165.973 215.167 197.659C212.575 228.398 182.204 227.678 167.059 226.844C177.749 242.409 207.684 273.039 241.895 271.038C276.105 269.036 266.84 240.741 257.931 226.844C250.21 226.01 234.767 222.704 234.767 214.164V197.659Z" fill="#161485"/>
<path d="M233.874 197.667C287.74 205.634 304.153 154.962 279.229 124.788C279.229 124.788 248.021 121.256 231.818 133.207C231.816 133.208 231.814 133.208 231.812 133.209L214.274 129.794C213.48 118.403 215.725 147.163 212.359 144.711C209.228 142.43 200.809 145.854 208.712 160.087C214.052 169.704 211.713 169.201 210.323 200.96C208.712 237.781 181.311 227.686 166.166 226.852C176.856 242.417 206.791 273.047 241.001 271.046C275.212 269.044 265.947 240.749 257.038 226.852C249.317 226.018 233.874 224.583 233.874 216.043V197.667Z" fill="white"/>
<path d="M151.961 238.048C156.825 216.518 175.18 216.437 194.636 220.971C194.636 220.971 211.558 227.751 240.844 220.971C277.208 212.552 276.02 239.324 277.208 243.75V327.486V347.721L247.532 351.959C227.468 351.959 233.213 351.667 198.284 353.659C163.356 355.651 140.584 348.458 130.188 344.033C136.876 309.472 148.022 255.481 151.961 238.048Z" fill="#04146C"/>
<path d="M252.38 269.908C248.827 315.774 250.043 330.188 250.043 350.185L255.514 349.616C251.772 318.829 253.596 319.693 252.38 269.908Z" fill="white"/>
<path d="M164.425 337.536L170.228 270.65L164.425 303.756L159.203 341.537L164.425 337.536Z" fill="white"/>
<path d="M219.543 255.183C229.817 260.812 233.248 234.645 233.679 220.858L204.661 218.929C205.341 228.668 209.268 249.554 219.543 255.183Z" fill="white"/>
<path d="M234.09 216.94C251.465 228.917 260.122 252.619 231.736 237.492L234.09 216.94Z" fill="#8A9AF1"/>
<path d="M207.417 216.429C189.956 228.345 176.416 249.135 208.142 237.415L207.417 216.429Z" fill="#8A9AF1"/>
<path d="M210.573 102.809C222.987 92.6425 232.986 90 248.889 90C264.792 90 277.678 98.5241 287.522 99.2654C297.366 100.007 304.167 91.4593 310.227 102.809C316.287 114.159 293.557 133.316 278.42 136.142C263.284 138.967 242.087 134.729 236.028 134.01C230.222 133.638 224.396 133.638 218.591 134.01C218.591 134.01 223.142 147.492 218.591 151.754C214.04 156.016 213.298 158.842 213.298 161.668C213.038 164.787 212.534 167.883 211.789 170.933L210.573 178.246L204.847 168.567C196.944 159.458 194.627 150.82 192.844 142.581C190.593 129.818 198.16 112.976 210.573 102.809Z" fill="#0A2FF1"/>
<path fill-rule="evenodd" clip-rule="evenodd" d="M211.035 171.046C209.306 167.679 208.021 164.109 207.221 160.413C204.97 147.65 216.323 134.934 216.323 134.934L230.717 121.313C230.717 121.313 247.363 107.832 263.266 107.832C272.63 107.832 280.947 110.787 288.214 113.369C293.289 115.172 297.851 116.793 301.899 117.098C303.713 117.234 305.423 117.056 307.044 116.744C300.732 125.687 287.796 134.317 278.024 136.141C265.397 138.499 248.553 135.94 239.797 134.61C238.057 134.345 236.636 134.129 235.631 134.01C229.826 133.638 224 133.638 218.194 134.01C218.194 134.01 222.745 147.492 218.194 151.754C213.643 156.016 212.902 158.842 212.902 161.668C212.642 164.786 212.137 167.883 211.393 170.933L211.035 171.046Z" fill="#04146C"/>
<path d="M308.147 242L317.588 247.569L317.588 247.569L327.004 253.125L327.004 242L327.004 230.875L317.588 236.431L317.334 236L317.588 236.431L308.147 242Z" stroke="#04146C"/>
<path d="M332.291 331.808C225.653 301.971 147.775 314.633 102.417 348.032C57.0585 381.431 50.8545 394 50.8545 394H541.595L595 331.808C562.64 349.91 468.126 369.815 332.291 331.808Z" fill="#EFF2FF"/>
<path d="M536.517 169.5C533.578 169.5 530.667 168.918 527.952 167.788C525.236 166.657 522.768 165 520.689 162.911C518.611 160.822 516.962 158.341 515.837 155.611C514.711 152.881 514.132 149.955 514.132 147C514.132 141.032 516.491 135.309 520.689 131.089C524.888 126.87 530.581 124.5 536.517 124.5C542.453 124.5 548.146 126.87 552.344 131.089C556.543 135.309 558.902 141.032 558.902 147C558.902 149.955 558.322 152.881 557.197 155.611C556.072 158.341 554.423 160.822 552.344 162.911C550.266 165 547.798 166.657 545.082 167.788C542.367 168.918 539.456 169.5 536.517 169.5Z" fill="white" stroke="#0A2FF1"/>
<path fill-rule="evenodd" clip-rule="evenodd" d="M542.563 136.919H534.217L536.261 140.093H542.563C546.555 140.093 549.576 143.012 549.576 146.361C549.576 149.71 546.555 152.629 542.563 152.629H539.844L530.752 137.183V143.557L537.961 155.829H541.727L541.712 155.803H542.563C548.1 155.803 552.804 151.688 552.804 146.361C552.804 141.034 548.1 136.919 542.563 136.919ZM519.772 155.829L530.747 137.183V143.557L523.538 155.829H519.772Z" fill="#04146C"/>
<path d="M48.3118 64.2333C46.174 64.2333 44.057 63.8101 42.0818 62.9879C40.1065 62.1656 38.3116 60.9602 36.7996 59.4406C35.2875 57.9209 34.088 56.1166 33.2695 54.1308C32.4511 52.1449 32.0298 50.0163 32.0298 47.8667C32.0298 43.5251 33.7458 39.362 36.7996 36.2928C39.8532 33.2237 43.9944 31.5 48.3118 31.5C52.6293 31.5 56.7704 33.2237 59.8241 36.2928C62.8778 39.362 64.5939 43.5252 64.5939 47.8667C64.5939 50.0163 64.1726 52.1449 63.3542 54.1308C62.5357 56.1166 61.3361 57.9209 59.8241 59.4406C58.312 60.9602 56.5171 62.1656 54.5419 62.9879C52.5666 63.8101 50.4497 64.2333 48.3118 64.2333Z" fill="white" stroke="#0A2FF1"/>
<path fill-rule="evenodd" clip-rule="evenodd" d="M52.7453 40.4739H46.625L48.1242 42.8013H52.7453C55.6732 42.8013 57.8886 44.942 57.8886 47.398C57.8886 49.8541 55.6732 51.9947 52.7453 51.9947H50.7513L44.084 40.6679V45.3422L49.3706 54.3409H52.1323L52.1213 54.3222H52.7453C56.8059 54.3222 60.2558 51.3047 60.2558 47.398C60.2558 43.4913 56.8059 40.4739 52.7453 40.4739ZM36.0322 54.3409L44.0805 40.6679V45.3422L38.7939 54.3409H36.0322Z" fill="#04146C"/>
<path d="M277.213 1.45784C269.952 1.5934 263.008 4.69228 257.858 10.1181C252.701 15.5505 249.756 22.879 249.644 30.5461L277.213 30.5009L277.213 1.45784Z" stroke="#3957F1" stroke-width="0.9064"/>
<path d="M0 314C7.0135 314 13.7397 311.261 18.699 306.385C23.6583 301.509 26.4444 294.896 26.4444 288C26.4444 281.104 23.6583 274.491 18.6991 269.615C13.7398 264.739 7.01351 262 9.23571e-06 262L0 314Z" fill="#3FFFF3"/>
<path d="M587.88 248C583.834 248 579.954 246.472 577.092 243.753C574.231 241.034 572.624 237.346 572.624 233.5C572.624 229.654 574.231 225.966 577.092 223.247C579.954 220.528 583.834 219 587.88 219L587.88 248Z" fill="#3FFFF3"/>
</svg>
